<svg width="23" height="23" viewBox="0 0 23 23" fill="none" xmlns="http://www.w3.org/2000/svg">
<path d="M16.7232 21.8022C15.6403 21.8022 14.4999 21.5434 13.3212 21.0451C12.1712 20.5563 11.0116 19.8855 9.88074 19.0709C8.75949 18.2467 7.67658 17.3267 6.65116 16.3205C5.63533 15.2951 4.71533 14.2122 3.90074 13.1005C3.07658 11.9505 2.41533 10.8005 1.94574 9.68883C1.44741 8.5005 1.19824 7.3505 1.19824 6.26758C1.19824 5.52008 1.33241 4.81091 1.59116 4.14966C1.85949 3.46925 2.29074 2.83675 2.87533 2.2905C3.61324 1.56216 4.45658 1.198 5.35741 1.198C5.73116 1.198 6.11449 1.28425 6.44033 1.43758C6.81407 1.61008 7.13033 1.86883 7.36033 2.21383L9.58366 5.34758C9.78491 5.6255 9.93824 5.89383 10.0437 6.16216C10.1682 6.44966 10.2353 6.73716 10.2353 7.01508C10.2353 7.37925 10.1299 7.73383 9.92866 8.06925C9.78491 8.328 9.56449 8.60592 9.28658 8.88383L8.63491 9.56425C8.64449 9.593 8.65408 9.61216 8.66366 9.63133C8.77866 9.83258 9.00866 10.1776 9.44949 10.6951C9.91908 11.2317 10.3599 11.7205 10.8007 12.1709C11.3662 12.7267 11.8357 13.1676 12.2766 13.5317C12.8228 13.9917 13.1774 14.2217 13.3882 14.3272L13.3691 14.3751L14.0687 13.6851C14.3657 13.388 14.6532 13.1676 14.9312 13.0238C15.4582 12.698 16.1291 12.6405 16.7999 12.9184C17.0491 13.0238 17.3174 13.1676 17.6049 13.3688L20.7866 15.6305C21.1412 15.8701 21.3999 16.1767 21.5532 16.5409C21.697 16.9051 21.7641 17.2405 21.7641 17.5759C21.7641 18.0359 21.6587 18.4959 21.4574 18.9272C21.2562 19.3584 21.007 19.7322 20.6907 20.0772C20.1445 20.6809 19.5503 21.1122 18.8603 21.3901C18.1991 21.6584 17.4803 21.8022 16.7232 21.8022ZM5.35741 2.6355C4.83033 2.6355 4.34158 2.8655 3.87199 3.3255C3.43116 3.73758 3.12449 4.188 2.93283 4.67675C2.73158 5.17508 2.63574 5.70216 2.63574 6.26758C2.63574 7.15883 2.84658 8.12675 3.26824 9.12341C3.69949 10.1392 4.30324 11.1934 5.06991 12.2476C5.83658 13.3017 6.70866 14.3272 7.66699 15.2951C8.62533 16.2438 9.66033 17.1255 10.7241 17.9017C11.7591 18.6588 12.8228 19.2722 13.877 19.713C15.5157 20.4126 17.0491 20.5755 18.3141 20.0484C18.8028 19.8472 19.2341 19.5405 19.627 19.0997C19.8474 18.8601 20.0199 18.6013 20.1637 18.2947C20.2787 18.0551 20.3362 17.8059 20.3362 17.5567C20.3362 17.4034 20.3074 17.2501 20.2307 17.0776C20.202 17.0201 20.1445 16.9147 19.9624 16.7901L16.7807 14.5284C16.5891 14.3942 16.4166 14.2984 16.2537 14.2313C16.0428 14.1451 15.9566 14.0588 15.6307 14.2601C15.4391 14.3559 15.2666 14.4997 15.0749 14.6913L14.3466 15.4101C13.9728 15.7742 13.3978 15.8605 12.957 15.6976L12.6982 15.5826C12.3053 15.3717 11.8453 15.0459 11.3374 14.6147C10.8774 14.2217 10.3791 13.7617 9.77532 13.1676C9.30574 12.6884 8.83616 12.1805 8.34741 11.6151C7.89699 11.088 7.57116 10.6376 7.36991 10.2638L7.25491 9.97633C7.19741 9.75591 7.17824 9.63133 7.17824 9.49716C7.17824 9.15216 7.30283 8.8455 7.54241 8.60591L8.26116 7.85841C8.45283 7.66675 8.59658 7.48466 8.69241 7.32175C8.76907 7.19716 8.79783 7.09175 8.79783 6.99591C8.79783 6.91925 8.76908 6.80425 8.72116 6.68925C8.65408 6.53591 8.54866 6.36341 8.41449 6.18133L6.19116 3.038C6.09533 2.90383 5.98033 2.808 5.83658 2.74091C5.68324 2.67383 5.52033 2.6355 5.35741 2.6355ZM13.3691 14.3847L13.2157 15.0363L13.4745 14.3655C13.4266 14.3559 13.3882 14.3655 13.3691 14.3847Z" fill="white"/>
</svg>
