<svg width="23" height="23" viewBox="0 0 23 23" fill="none" xmlns="http://www.w3.org/2000/svg">
<path fill-rule="evenodd" clip-rule="evenodd" d="M23 11.5C23 17.8513 17.8513 23 11.5 23C5.14873 23 0 17.8513 0 11.5C0 5.14873 5.14873 0 11.5 0C17.8513 0 23 5.14873 23 11.5ZM11.9121 8.48981C10.7936 8.95505 8.55805 9.91798 5.20556 11.3786C4.66117 11.5951 4.376 11.8069 4.35004 12.014C4.30616 12.3639 4.74443 12.5017 5.34124 12.6894C5.42242 12.7149 5.50654 12.7414 5.59277 12.7694C6.17994 12.9603 6.96979 13.1836 7.3804 13.1924C7.75286 13.2005 8.16857 13.0469 8.62753 12.7318C11.7599 10.6174 13.3768 9.54865 13.4783 9.52561C13.5499 9.50936 13.6492 9.48892 13.7164 9.54869C13.7836 9.60845 13.777 9.72164 13.7699 9.752C13.7265 9.93709 12.0061 11.5365 11.1158 12.3642C10.8383 12.6222 10.6414 12.8053 10.6012 12.8471C10.511 12.9407 10.4191 13.0293 10.3308 13.1144C9.78532 13.6403 9.37625 14.0346 10.3535 14.6786C10.8231 14.9881 11.1989 15.244 11.5738 15.4993C11.9832 15.7781 12.3915 16.0562 12.9199 16.4025C13.0545 16.4908 13.1831 16.5824 13.3083 16.6717C13.7847 17.0114 14.2128 17.3165 14.7416 17.2679C15.0489 17.2396 15.3664 16.9506 15.5276 16.0888C15.9085 14.0522 16.6574 9.63935 16.8305 7.82093C16.8456 7.66162 16.8265 7.45772 16.8112 7.36822C16.7959 7.27871 16.7639 7.15119 16.6476 7.05678C16.5098 6.94498 16.2971 6.9214 16.2019 6.92308C15.7694 6.9307 15.1058 7.16145 11.9121 8.48981Z" fill="white"/>
</svg>
