<svg width="22" height="23" viewBox="0 0 22 23" fill="none" xmlns="http://www.w3.org/2000/svg">
<path d="M0 23L1.5538 17.0938C0.594993 15.365 0.0911831 13.4052 0.0921042 11.3955C0.0948673 5.11271 5.00862 0 11.0461 0C13.9759 0.000958333 16.7261 1.18833 18.7948 3.34267C20.8625 5.497 22.0009 8.3605 22 11.4061C21.9972 17.6899 17.0835 22.8026 11.0461 22.8026C9.21318 22.8016 7.40702 22.3234 5.80717 21.4149L0 23ZM6.07611 19.3516C7.61978 20.3052 9.09344 20.8763 11.0424 20.8773C16.0602 20.8773 20.1478 16.628 20.1505 11.4042C20.1524 6.16975 16.0841 1.92625 11.0497 1.92433C6.02822 1.92433 1.9434 6.17358 1.94156 11.3965C1.94063 13.5288 2.54115 15.1254 3.54969 16.7957L2.62957 20.2917L6.07611 19.3516ZM16.564 14.1153C16.4959 13.9965 16.3135 13.9255 16.039 13.7828C15.7655 13.64 14.4198 12.9509 14.1684 12.856C13.9179 12.7612 13.7355 12.7133 13.5522 12.9988C13.3698 13.2835 12.8448 13.9255 12.6855 14.1153C12.5262 14.305 12.3659 14.329 12.0924 14.1862C11.8188 14.0434 10.9364 13.7435 9.89106 12.7727C9.07778 12.0175 8.52792 11.085 8.36858 10.7995C8.20924 10.5148 8.352 10.3605 8.48832 10.2187C8.61174 10.0912 8.76187 9.88617 8.8991 9.71942C9.03818 9.55458 9.08331 9.43575 9.17542 9.24504C9.2666 9.05529 9.22147 8.88854 9.15239 8.74575C9.08331 8.60392 8.53621 7.20187 8.30872 6.63167C8.08582 6.07679 7.86017 6.15154 7.69254 6.14292L7.16755 6.13333C6.98518 6.13333 6.6886 6.20425 6.43808 6.48983C6.18756 6.77542 5.4802 7.4635 5.4802 8.86554C5.4802 10.2676 6.46111 11.6217 6.59742 11.8115C6.73466 12.0012 8.527 14.8781 11.2726 16.1115C11.9256 16.4048 12.4359 16.5801 12.8329 16.7114C13.4887 16.928 14.0855 16.8973 14.5571 16.8245C15.083 16.743 16.1763 16.1355 16.4047 15.4704C16.6331 14.8043 16.6331 14.2341 16.564 14.1153Z" fill="white"/>
</svg>
