<svg width="22" height="15" viewBox="0 0 22 15" fill="none" xmlns="http://www.w3.org/2000/svg">
<path d="M21.7809 3.2366C21.7809 3.2366 21.566 1.76618 20.9043 1.12052C20.0664 0.270758 19.1297 0.266592 18.7 0.216606C15.6234 -1.19176e-07 11.0043 0 11.0043 0H10.9957C10.9957 0 6.37656 -1.19176e-07 3.3 0.216606C2.87031 0.266592 1.93359 0.270758 1.0957 1.12052C0.433984 1.76618 0.223438 3.2366 0.223438 3.2366C0.223438 3.2366 0 4.96529 0 6.68981V8.30603C0 10.0305 0.219141 11.7592 0.219141 11.7592C0.219141 11.7592 0.433984 13.2297 1.09141 13.8753C1.9293 14.7251 3.0293 14.6959 3.51914 14.7876C5.28086 14.95 11 15 11 15C11 15 15.6234 14.9917 18.7 14.7792C19.1297 14.7292 20.0664 14.7251 20.9043 13.8753C21.566 13.2297 21.7809 11.7592 21.7809 11.7592C21.7809 11.7592 22 10.0347 22 8.30603V6.68981C22 4.96529 21.7809 3.2366 21.7809 3.2366ZM8.72695 10.268V4.27381L14.6695 7.28131L8.72695 10.268Z" fill="white"/>
</svg>
