<svg width="24" height="16" viewBox="0 0 24 16" fill="none" xmlns="http://www.w3.org/2000/svg">
<path d="M23.7609 3.45237C23.7609 3.45237 23.5266 1.88392 22.8047 1.19522C21.8906 0.288809 20.8688 0.284365 20.4 0.231047C17.0438 -1.27157e-07 12.0047 0 12.0047 0H11.9953C11.9953 0 6.95625 -1.27157e-07 3.6 0.231047C3.13125 0.284365 2.10938 0.288809 1.19531 1.19522C0.473438 1.88392 0.24375 3.45237 0.24375 3.45237C0.24375 3.45237 0 5.29631 0 7.1358V8.85976C0 10.6993 0.239063 12.5432 0.239063 12.5432C0.239063 12.5432 0.473437 14.1116 1.19062 14.8003C2.10469 15.7067 3.30469 15.6756 3.83906 15.7734C5.76094 15.9467 12 16 12 16C12 16 17.0438 15.9911 20.4 15.7645C20.8688 15.7112 21.8906 15.7067 22.8047 14.8003C23.5266 14.1116 23.7609 12.5432 23.7609 12.5432C23.7609 12.5432 24 10.7037 24 8.85976V7.1358C24 5.29631 23.7609 3.45237 23.7609 3.45237ZM9.52031 10.9525V4.55873L16.0031 7.76673L9.52031 10.9525Z" fill="#0E1D3A"/>
</svg>
