<svg width="16" height="16" viewBox="0 0 16 16" fill="none" xmlns="http://www.w3.org/2000/svg">
<path d="M14.0236 14.7307L0.316599 1.02371C0.00438416 0.711491 -0.0942482 0.292304 0.0990277 0.0990277C0.292304 -0.0942482 0.711491 0.00438416 1.02371 0.316599L14.7307 14.0236C15.0429 14.3358 15.1415 14.755 14.9483 14.9483C14.755 15.1415 14.3358 15.0429 14.0236 14.7307Z" fill="white"/>
<path d="M14.731 1.02377L1.02403 14.7308C0.711817 15.043 0.29263 15.1416 0.0993538 14.9483C-0.0939223 14.7551 0.00470993 14.3359 0.316925 14.0237L14.0239 0.316663C14.3361 0.00444821 14.7553 -0.094184 14.9486 0.099092C15.1419 0.292368 15.0432 0.711556 14.731 1.02377Z" fill="white"/>
</svg>
