<svg width="35" height="35" viewBox="0 0 35 35" fill="none" xmlns="http://www.w3.org/2000/svg">
<rect width="35" height="35" rx="17.5" fill="white" fill-opacity="0.3"/>
<path d="M24.0236 24.7307L10.3166 11.0237C10.0044 10.7115 9.90575 10.2923 10.099 10.099C10.2923 9.90575 10.7115 10.0044 11.0237 10.3166L24.7307 24.0236C25.0429 24.3358 25.1415 24.755 24.9483 24.9483C24.755 25.1415 24.3358 25.0429 24.0236 24.7307Z" fill="white"/>
<path d="M24.731 11.0238L11.024 24.7308C10.7118 25.043 10.2926 25.1416 10.0994 24.9483C9.90608 24.7551 10.0047 24.3359 10.3169 24.0237L24.0239 10.3167C24.3361 10.0044 24.7553 9.90582 24.9486 10.0991C25.1419 10.2924 25.0432 10.7116 24.731 11.0238Z" fill="white"/>
</svg>
