<svg width="23" height="23" viewBox="0 0 23 23" fill="none" xmlns="http://www.w3.org/2000/svg">
<path d="M0.860132 10.614L21.4718 10.652C21.9412 10.6529 22.3301 10.8946 22.3296 11.1853C22.3291 11.4759 21.9393 11.7162 21.4698 11.7153L0.858187 11.6773C0.388701 11.6764 -0.000189472 11.4347 0.000341827 11.1441C0.000873128 10.8534 0.390646 10.6131 0.860132 10.614Z" fill="white"/>
<path d="M10.6142 21.4697L10.6519 0.858063C10.6527 0.388576 10.8945 -0.000309612 11.1851 0.000226124C11.4757 0.000762536 11.716 0.390538 11.7152 0.860026L11.6775 21.4717C11.6766 21.9411 11.4349 22.33 11.1443 22.3295C10.8536 22.329 10.6133 21.9392 10.6142 21.4697Z" fill="white"/>
</svg>
