<svg width="209" height="209" viewBox="0 0 209 209" fill="none" xmlns="http://www.w3.org/2000/svg">
<g opacity="0.5">
<rect x="83.0234" y="83.0234" width="42.3258" height="42.3258" fill="white" fill-opacity="0.06"/>
<rect x="83.5234" y="83.5234" width="41.3258" height="41.3258" stroke="white" stroke-opacity="0.6"/>
<rect x="124.535" y="41.5117" width="42.3258" height="42.3258" fill="white" fill-opacity="0.02"/>
<rect x="125.035" y="42.0117" width="41.3258" height="41.3258" stroke="white" stroke-opacity="0.1"/>
<rect x="41.5117" y="41.5117" width="42.3258" height="42.3258" fill="white" fill-opacity="0.02"/>
<rect x="42.0117" y="42.0117" width="41.3258" height="41.3258" stroke="white" stroke-opacity="0.1"/>
<rect x="83.0234" y="41.5117" width="42.3258" height="42.3258" fill="white" fill-opacity="0.06"/>
<rect x="83.5234" y="42.0117" width="41.3258" height="41.3258" stroke="white" stroke-opacity="0.2"/>
<rect x="83.0234" width="42.3258" height="42.3258" fill="white" fill-opacity="0.02"/>
<rect x="83.5234" y="0.5" width="41.3258" height="41.3258" stroke="white" stroke-opacity="0.1"/>
<rect x="166.047" y="83.0234" width="42.3258" height="42.3258" fill="white" fill-opacity="0.02"/>
<rect x="166.547" y="83.5234" width="41.3258" height="41.3258" stroke="white" stroke-opacity="0.1"/>
<rect y="83.0234" width="42.3258" height="42.3258" fill="white" fill-opacity="0.02"/>
<rect x="0.5" y="83.5234" width="41.3258" height="41.3258" stroke="white" stroke-opacity="0.1"/>
<rect x="83.0234" y="166.047" width="42.3258" height="42.3258" fill="white" fill-opacity="0.02"/>
<rect x="83.5234" y="166.547" width="41.3258" height="41.3258" stroke="white" stroke-opacity="0.1"/>
<rect x="124.535" y="83.0234" width="42.3258" height="42.3258" fill="white" fill-opacity="0.06"/>
<rect x="125.035" y="83.5234" width="41.3258" height="41.3258" stroke="white" stroke-opacity="0.2"/>
<rect x="124.535" y="124.536" width="42.3258" height="42.3258" fill="white" fill-opacity="0.02"/>
<rect x="125.035" y="125.036" width="41.3258" height="41.3258" stroke="white" stroke-opacity="0.1"/>
<rect x="83.0234" y="124.536" width="42.3258" height="42.3258" fill="white" fill-opacity="0.06"/>
<rect x="83.5234" y="125.036" width="41.3258" height="41.3258" stroke="white" stroke-opacity="0.2"/>
<rect x="41.5117" y="83.0234" width="42.3258" height="42.3258" fill="white" fill-opacity="0.06"/>
<rect x="42.0117" y="83.5234" width="41.3258" height="41.3258" stroke="white" stroke-opacity="0.2"/>
<rect x="41.5117" y="124.536" width="42.3258" height="42.3258" fill="white" fill-opacity="0.02"/>
<rect x="42.0117" y="125.036" width="41.3258" height="41.3258" stroke="white" stroke-opacity="0.1"/>
</g>
</svg>
