<svg width="1920" height="100" viewBox="0 0 1920 100" fill="none" xmlns="http://www.w3.org/2000/svg">
<g clip-path="url(#clip0_267_2002)">
<path d="M2156 50C2156 22.3858 2133.61 0 2106 0H1385.36C1362.72 0 1341.01 8.99277 1325 25C1308.99 41.0072 1287.28 50 1264.64 50H656.355C633.718 50 612.007 41.0072 596 25C579.993 8.99277 558.282 0 535.645 0H-48C-75.6142 0 -98 22.3858 -98 50C-98 77.6142 -75.6142 100 -48 100H2106C2133.61 100 2156 77.6142 2156 50Z" fill="white"/>
</g>
<defs>
<clipPath id="clip0_267_2002">
<rect width="1920" height="100" fill="white" transform="matrix(1 0 0 -1 0 100)"/>
</clipPath>
</defs>
</svg>
