<svg width="124" height="130" viewBox="0 0 124 130" fill="none" xmlns="http://www.w3.org/2000/svg">
<g clip-path="url(#clip0_262_739)">
<path d="M59.4457 84.4041H37.4639V109.36H59.4457V84.4041Z" fill="white"/>
<path d="M112.341 60.1255H91.0117V109.36H112.341V60.1255Z" fill="white"/>
<path d="M112.481 53.0911C115.811 56.4184 119.132 59.7675 122.486 63.0754C123.199 63.7792 123.502 64.4821 123.5 65.5315C123.459 81.9796 123.471 98.4284 123.47 114.875C123.47 115.376 123.382 115.549 123.314 115.617C123.249 115.684 123.086 115.772 122.599 115.772C108.455 115.772 94.3118 115.78 80.1689 115.749C79.6945 115.748 79.271 115.821 78.876 115.993C78.4822 116.165 78.1441 116.423 77.8232 116.753C75.9008 118.733 73.97 120.704 72.0361 122.673L66.2285 128.578C66.0379 128.773 65.8635 128.945 65.6787 129.088L65.6768 129.089C65.2515 129.421 64.9663 129.51 64.75 129.498C64.5343 129.486 64.2632 129.366 63.8838 128.99C61.8454 126.97 59.8104 124.934 57.7637 122.918C55.6821 120.867 53.5661 118.934 51.5986 116.827C51.1942 116.394 50.7744 116.109 50.3066 115.943C49.8441 115.779 49.368 115.743 48.8721 115.762C47.6955 115.806 46.5807 115.761 45.3604 115.779C45.0739 115.783 44.884 115.714 44.7275 115.563C42.76 113.659 40.7936 111.752 38.8271 109.846C45.4799 109.846 52.1317 109.841 58.7832 109.859H58.7842C59.0299 109.859 59.3933 109.845 59.6553 109.595C59.924 109.339 59.9489 108.97 59.9482 108.693C59.9314 100.953 59.9393 93.2153 59.9424 85.4749C60.5028 86.0563 61.0628 86.6382 61.623 87.22C62.2865 87.9088 62.9504 88.5978 63.6143 89.2864L63.6152 89.2874C63.6476 89.3209 63.6765 89.3549 63.7246 89.4094C63.7675 89.458 63.8244 89.5209 63.8906 89.5813C63.939 89.6255 63.9966 89.6674 64.0605 89.7083C64.0661 96.0242 64.0788 102.337 64.0615 108.651C64.0609 108.926 64.078 109.304 64.3379 109.572C64.6023 109.843 64.9821 109.862 65.2559 109.862H65.2568C71.808 109.838 78.3589 109.846 84.9121 109.846C85.2983 109.846 85.6803 109.751 85.9629 109.473C86.2468 109.193 86.3456 108.812 86.3457 108.427C86.347 98.4003 86.3482 88.3515 86.3496 78.3235C86.9326 78.9386 87.5144 79.5561 88.0967 80.1741L88.3535 80.4475L88.3613 80.4426C88.9852 81.087 89.6173 81.7517 90.2725 82.384C90.3761 82.4843 90.4288 82.5664 90.46 82.6428C90.4838 82.7014 90.5015 82.7734 90.5088 82.8713L90.5127 82.9788C90.5032 91.5263 90.5145 100.069 90.4941 108.616C90.4935 108.907 90.5118 109.296 90.7793 109.568C90.9824 109.774 91.2524 109.836 91.4951 109.854L91.7256 109.86C94.9895 109.847 98.2534 109.842 101.518 109.842L111.312 109.858C111.453 109.858 111.604 109.852 111.744 109.825C111.889 109.798 112.055 109.741 112.2 109.615C112.493 109.358 112.526 108.971 112.526 108.666V108.665C112.499 90.1403 112.492 71.6151 112.481 53.0911Z" stroke="white"/>
<path d="M117.157 16.1143C117.164 16.1401 117.17 16.1787 117.173 16.2383L117.179 16.4492C117.24 18.5938 117.309 20.7301 117.344 22.8682C117.497 32.2655 117.641 41.6618 117.787 51.0596V51.248C117.091 50.5898 116.41 49.9367 115.709 49.2725C114.6 48.2223 113.487 47.176 112.331 46.0869L111.819 45.6045L111.532 46.2471C111.097 47.2205 110.651 48.1668 110.25 49.1201C108.833 52.4828 107.184 55.7164 105.277 58.8105L104.893 59.4277C104.818 59.5456 104.768 59.5815 104.739 59.5967C104.708 59.6132 104.646 59.6343 104.501 59.6338C100.2 59.6172 95.9173 59.6337 91.6221 59.6074C91.4723 59.6067 91.3142 59.6125 91.168 59.6406C91.0179 59.6696 90.8469 59.7284 90.6992 59.8604C90.4016 60.1265 90.3723 60.5261 90.377 60.8457C90.4502 66.2832 90.475 71.7116 90.5361 77.1543C90.5383 77.3536 90.5109 77.4723 90.4717 77.5557C90.4437 77.6152 90.3992 77.6789 90.3174 77.751L90.2227 77.8262C89.6383 78.2453 89.0706 78.7092 88.5225 79.1504L86.8428 77.373C86.8067 77.3344 86.661 77.1576 86.5156 77.0527C86.3613 76.9414 86.1668 76.8661 85.9395 76.8789C85.8129 76.8321 85.6933 76.8144 85.5928 76.8105C85.5192 76.8078 85.4497 76.811 85.3984 76.8135C85.3407 76.8163 85.3058 76.8184 85.2715 76.8184C78.5639 76.8156 71.8595 76.8193 65.1533 76.8027H65.1523C64.921 76.8027 64.5706 76.8191 64.3223 77.0723C64.1381 77.26 64.0836 77.5036 64.0684 77.7139L64.0635 77.9102C64.0819 81.3752 64.0731 84.8407 64.0693 88.3086C63.4968 87.7147 62.9241 87.1206 62.3516 86.5264C61.6877 85.8374 61.0233 85.1477 60.3594 84.459C60.3131 84.4109 60.193 84.2741 60.0752 84.1787C59.9339 84.0644 59.7392 83.9551 59.4805 83.9395L59.4658 83.9385H59.4502C54.0961 83.9316 48.7408 83.9249 43.3867 83.918C41.5704 83.9152 39.7734 83.9346 37.9717 83.9043C37.7293 83.9003 37.3622 83.9104 37.1035 84.1719C36.8461 84.4321 36.8346 84.7997 36.8418 85.0596V85.0605C36.9971 90.8208 36.9571 96.581 36.9648 102.357C30.2321 95.5701 23.6033 88.8868 16.9775 82.2061C17.7395 82.2097 18.5088 82.2138 19.2734 82.2002H19.2744C23.3426 82.1253 27.4063 81.8925 31.4561 81.4775C38.0101 80.8065 44.4556 79.5487 50.7881 77.6602C55.9146 76.1317 60.9238 74.2837 65.7695 71.9824C73.1599 68.4726 80.1034 64.1915 86.3574 58.8145L86.3584 58.8154C92.217 53.7794 97.2036 47.9738 100.673 40.9229L101.004 40.2373C101.074 40.0894 101.159 39.9354 101.254 39.7637C101.346 39.5975 101.448 39.4138 101.536 39.2275C101.708 38.8654 101.875 38.4058 101.789 37.918V37.917L101.742 37.7324C101.606 37.3197 101.288 37.0303 101.025 36.8252C100.87 36.704 100.698 36.5858 100.556 36.4844C100.405 36.3771 100.278 36.2823 100.173 36.1865H100.174C98.9541 35.0682 97.7341 33.9419 96.502 32.8281L95.2646 31.7188C95.2488 31.7047 95.2358 31.6901 95.2227 31.6777C95.2434 31.6623 95.2661 31.645 95.292 31.627H95.293C100.906 27.7009 106.512 23.7646 112.106 19.8105C112.916 19.2387 113.715 18.6499 114.51 18.0576L116.883 16.2832C116.917 16.2579 116.95 16.2316 116.979 16.21C117.008 16.1871 117.034 16.1688 117.058 16.1514C117.102 16.1191 117.13 16.1022 117.149 16.0928C117.151 16.0961 117.154 16.1026 117.157 16.1143Z" stroke="white"/>
<path d="M63.4707 0.501465C63.6966 0.503557 63.9986 0.627809 64.415 1.04346L91.8818 28.4585C91.933 28.5102 91.9591 28.5424 92.0342 28.6226C92.0689 28.6596 92.111 28.702 92.1592 28.7456C91.1355 29.6408 90.1112 30.5469 89.1152 31.4888L89.1143 31.4897C89.1062 31.4974 89.0974 31.5025 89.0908 31.5083C89.0876 31.5063 89.0836 31.5047 89.0801 31.5024C89.0579 31.4885 89.0326 31.4718 89.002 31.4507H89.0029C84.5334 28.3503 79.6763 26.1168 74.4287 24.7729C69.7793 23.5819 65.0619 23.1296 60.2676 23.5483C51.1679 24.3438 43.2354 27.9615 36.2832 33.8706C30.3261 38.9324 25.8766 45.1354 23.1006 52.5327C22.1115 55.1683 21.4474 57.9053 20.9717 60.6772C20.3373 64.374 20.4449 68.0777 20.7266 71.731C20.8905 73.8653 21.4125 75.9478 22.0312 78.063C19.9154 78.0537 17.8172 78.0106 15.7334 78.0688L14.7461 78.105C14.2186 78.1293 13.8131 78.0603 13.459 77.9097C13.1023 77.7579 12.7638 77.5091 12.3916 77.1226C8.73322 73.3235 4.99237 69.595 1.30469 65.8394C0.988041 65.5169 0.77762 65.2822 0.646484 65.0923C0.51847 64.9068 0.499114 64.8096 0.499023 64.7554C0.499047 64.7013 0.518157 64.6046 0.645508 64.4204C0.775545 64.2324 0.983428 64.0017 1.29492 63.6831C6.76624 58.0855 12.2386 52.4874 17.7139 46.894C26.6041 37.8107 35.504 28.732 44.3906 19.644L62.5586 1.02393C62.958 0.614246 63.2497 0.499543 63.4707 0.501465Z" stroke="white"/>
<path d="M87.0057 54.1144C85.4405 50.2646 83.4128 46.7384 80.9687 43.4597C80.7802 43.2066 80.8236 43.096 81.0135 42.9135C82.2572 41.7076 83.444 40.4423 84.5629 39.1148C84.7745 38.8645 84.8735 38.9337 85.081 39.101C86.1363 39.9487 86.9812 40.9996 87.8466 42.0298C88.0324 42.2511 88.1965 42.4862 88.5953 42.7268C88.4027 40.9028 89.1052 39.1093 87.8696 37.537C87.6214 37.2217 87.4098 36.8331 87.3163 36.4446C87.1549 35.7753 86.7222 35.5485 86.1349 35.3618C84.1398 34.7299 82.0863 34.3593 80.0627 33.8545C79.234 33.6471 78.4242 33.3747 77.6471 32.9999C78.0784 32.368 78.7457 31.9946 79.2828 31.447C78.6101 30.8801 77.803 30.7349 77.0232 30.5661C75.6194 30.2605 74.2047 30.0047 72.7887 29.7544C71.1761 29.4696 69.8415 30.1734 68.6045 31.0972C68.2464 31.364 68.0213 31.3599 67.6686 31.1345C64.8258 29.3078 61.7849 27.9291 58.5433 27.0192C58.2205 26.9293 57.8977 26.8422 57.5654 26.7509C60.2523 26.2254 62.9595 26.1646 65.6626 26.3126C73.2906 26.7274 80.2593 29.2151 86.6489 33.4411C90.2228 35.8057 93.4536 38.5921 96.4212 41.7021C96.6057 41.8943 96.7834 42.0215 96.5663 42.3769C93.9202 46.719 90.7545 50.6186 87.0057 54.113V54.1144Z" fill="white"/>
<path d="M51.9408 54.5805C52.09 54.5265 52.1863 54.7353 52.3205 54.8861C52.8915 55.5263 53.5643 55.9882 54.4079 56.1915C54.8962 56.309 55.3411 56.3284 55.748 55.9896C56.0355 55.7503 56.1725 55.8582 56.2715 56.1873C57.3077 59.6112 58.348 63.0323 59.3992 66.4507C59.4914 66.7521 59.4548 66.8545 59.1374 66.9554C55.8849 67.9801 52.585 68.8112 49.2539 69.5192C48.1566 69.7529 47.0512 69.9493 45.9486 70.1608C45.6922 70.2092 45.4237 70.3475 45.3355 69.9009C44.5122 65.7219 43.8463 61.5209 43.5614 57.2618C43.518 56.6091 43.7147 56.4791 44.3142 56.3533C46.6986 55.8554 49.0627 55.2608 51.4349 54.7021C51.5664 54.6717 51.6966 54.6385 51.9394 54.5805H51.9408Z" fill="white"/>
<path d="M64.8483 52.6942C66.8258 52.6583 68.6975 53.3511 70.633 53.5613C71.4657 53.6511 71.8075 54.0425 72.1303 54.7159C72.9658 56.4583 73.7905 58.2062 74.5731 59.9748C74.7643 60.4063 74.7372 60.604 74.2679 60.8432C69.8327 63.1097 65.2443 64.9807 60.5175 66.5059C60.1988 66.6083 60.074 66.6415 59.956 66.2474C58.9279 62.7723 57.8727 59.3055 56.8202 55.8374C56.7592 55.6355 56.6249 55.4461 56.9206 55.3313C59.0351 54.5196 61.0438 53.4313 63.2383 52.8256C63.7713 52.679 64.3098 52.7039 64.8496 52.6942H64.8483Z" fill="white"/>
<path d="M27.9471 71.7471C26.5379 71.7471 25.4081 71.7346 24.2797 71.754C23.9379 71.7595 23.7778 71.7097 23.7385 71.299C23.5161 69.0049 23.4265 66.715 23.5961 64.4112C23.7412 62.4406 23.984 60.4936 24.4139 58.5659C24.498 58.187 24.6187 58.0847 24.9755 58.0875C27.798 58.1193 30.6123 57.9616 33.4212 57.6906C33.7861 57.656 33.9068 57.6837 33.8417 58.1511C33.3819 61.4436 33.4172 64.7555 33.565 68.0674C33.6098 69.0768 33.6857 70.0863 33.7942 71.0916C33.8376 71.4968 33.7346 71.5936 33.3507 71.6005C31.4559 71.6378 29.5639 71.8176 27.9458 71.7457L27.9471 71.7471Z" fill="white"/>
<path d="M34.0912 64.8188C34.0464 62.3891 34.1956 60.2153 34.4736 58.047C34.5211 57.6792 34.669 57.5769 34.9687 57.5548C37.5498 57.3736 40.1132 57.0307 42.6658 56.6089C43.1025 56.537 42.9601 56.8799 42.9642 57.0473C43.0049 58.6569 43.2002 60.2499 43.3887 61.8457C43.7034 64.5062 44.151 67.1419 44.7016 69.761C44.7912 70.1869 44.764 70.3501 44.2866 70.4206C42.3064 70.711 40.3289 71.0125 38.3337 71.1812C37.189 71.278 36.0429 71.3609 34.8995 71.4702C34.5862 71.5006 34.4533 71.408 34.4248 71.0858C34.3719 70.4953 34.2471 69.909 34.2309 69.3185C34.1861 67.7379 33.9732 66.1615 34.0925 64.8188H34.0912Z" fill="white"/>
<path d="M38.0264 45.5892C36.978 46.217 37.1055 47.0979 37.2723 47.9968C37.313 48.2208 37.3144 48.4586 37.2927 48.6854C37.2181 49.4957 37.157 50.248 38.295 50.331C38.706 50.3614 38.8864 50.7901 38.9189 51.2063C38.9447 51.5271 38.885 51.8618 38.9528 52.1701C39.1142 52.8975 38.7073 53.0206 38.1485 53.0856C37.4595 53.1672 36.7596 53.0814 36.0801 53.3372C35.1239 53.6968 34.6424 54.438 34.4824 55.3797C34.2559 56.7127 33.655 57.2133 32.1373 57.2437C29.8384 57.2908 27.5421 57.5245 25.2377 57.5079C24.8105 57.5051 24.6694 57.4844 24.8132 56.9561C26.0339 52.4813 27.9612 48.3494 30.5301 44.5217C30.7037 44.2617 30.861 44.0571 31.2272 44.1373C33.4353 44.6171 35.6447 45.0817 38.0251 45.5879L38.0264 45.5892Z" fill="white"/>
<path d="M54.1484 43.1222C52.8246 43.1305 52.8192 43.1319 52.4882 41.7671C51.5483 37.891 50.6124 34.0149 49.6752 30.1388C49.6589 30.0725 49.6467 30.0047 49.6332 29.9369C49.5762 29.6521 49.1856 29.2925 49.5504 29.1031C49.9587 28.8915 50.3737 28.496 50.9597 28.8403C55.5698 31.5396 59.5248 34.9967 62.7528 39.3125C62.9807 39.6181 62.8749 39.7744 62.6837 40.0067C61.2785 41.72 59.4149 42.5262 57.3072 42.8401C56.2601 42.9964 55.2076 43.1098 54.147 43.1222H54.1484Z" fill="white"/>
<path d="M72.2256 53.5985C76.1969 52.2018 78.6532 49.4265 79.6935 45.3112C79.7816 44.9641 79.7654 44.6294 79.7735 44.2892C79.7816 43.9435 80.0556 43.8149 80.2726 43.7002C80.4639 43.5978 80.5385 43.8882 80.628 44.0113C82.5702 46.665 84.2521 49.4804 85.6396 52.4784C85.7983 52.8199 85.7766 53.0039 85.4782 53.268C82.5824 55.811 79.4168 57.9489 76.0843 59.8433C75.851 59.9761 75.6177 60.1116 75.36 60.261C74.3835 57.989 73.3663 55.7557 72.2269 53.6012L72.2256 53.5985Z" fill="white"/>
<path d="M39.8945 43.4693C41.198 39.5504 43.0629 36.0242 45.2628 32.6694C45.4853 32.3292 45.7199 32.0001 45.903 31.6282C46.4279 30.5578 47.3353 29.9577 48.4163 29.5511C48.8354 29.3935 48.8883 29.5456 48.9697 29.8844C49.4973 32.1025 50.0398 34.3178 50.5769 36.5331C51.0923 38.664 51.6036 40.7949 52.1204 42.9245C52.2777 43.5731 52.1733 43.7528 51.5033 43.7252C50.0615 43.6685 48.6224 43.5661 47.182 43.479C46.9569 43.4652 46.7344 43.4251 46.5093 43.4113C45.5585 43.3518 45.5504 43.3532 45.5165 42.3492C45.4921 41.6592 45.4717 40.9678 45.4961 40.2791C45.511 39.8726 45.3469 39.8159 44.9943 39.7799C43.6827 39.6486 42.8201 40.452 42.0524 41.3107C41.3892 42.0533 40.6744 42.7268 39.8959 43.468L39.8945 43.4693Z" fill="white"/>
<path d="M67.7084 31.9061C65.2983 33.7135 64.7734 36.6465 63.3831 39.148C60.0873 34.6773 56.097 31.158 51.3594 28.3592C52.8378 27.8406 54.2321 27.3469 55.6942 27.1395C56.7168 26.9929 57.6825 27.4105 58.6537 27.6774C61.5073 28.4642 65.225 30.1983 67.7084 31.9061Z" fill="white"/>
<path d="M45.5301 31.042C43.4333 34.2571 41.472 37.5344 40.0845 41.1353C39.7739 41.9415 39.485 42.7573 39.2083 43.576C38.7892 44.815 38.5234 45.0155 37.2674 44.779C35.2655 44.4029 33.2704 43.9798 31.2305 43.5691C35.1475 38.3102 39.9136 34.1796 45.5301 31.042Z" fill="white"/>
<path d="M27.892 72.3582C29.7448 72.3804 31.5934 72.2766 33.4421 72.1798C33.7527 72.1632 33.8978 72.202 33.9426 72.5905C34.1447 74.3675 34.3793 76.1403 34.6492 77.9075C34.7048 78.2685 34.5461 78.2242 34.3467 78.2463C32.7802 78.4233 31.215 78.6238 29.6458 78.7732C28.322 78.899 26.9901 78.9488 25.665 79.065C25.2391 79.1023 25.0899 78.9377 24.9854 78.5409C24.489 76.6353 24.0943 74.7132 23.8638 72.7537C23.8177 72.3638 23.9248 72.3485 24.2327 72.3527C25.452 72.3679 26.6713 72.3596 27.8907 72.3596L27.892 72.3582Z" fill="white"/>
<path d="M60.647 70.5966C60.6999 70.8773 60.5141 70.8663 60.3744 70.9243C56.0518 72.7054 51.6953 74.3842 47.1842 75.6121C46.8329 75.7075 46.7149 75.6716 46.6267 75.2899C46.3161 73.9348 45.9649 72.5893 45.6231 71.241C45.5417 70.9202 45.6461 70.8344 45.9703 70.7764C49.0356 70.2246 52.0778 69.5581 55.0847 68.7367C56.4682 68.3592 57.8476 67.9665 59.2202 67.5516C59.5864 67.441 59.7233 67.4935 59.8278 67.8918C60.0692 68.8155 60.3784 69.7213 60.6484 70.5966H60.647Z" fill="white"/>
<path d="M35.3872 78.0915C35.3872 78.0915 35.2163 78.1786 35.1824 77.8205C35.0102 76.0449 34.7999 74.2721 34.5639 72.5035C34.5165 72.1467 34.5897 72.072 34.9125 72.0568C38.15 71.8964 41.3604 71.4816 44.56 70.9741C44.8055 70.9354 44.9601 70.9395 45.032 71.2714C45.3385 72.675 45.6667 74.0744 46.0302 75.4641C46.113 75.7794 46.1116 75.9218 45.7861 76.0062C42.4604 76.8746 39.0981 77.5619 35.7046 78.0915C35.6612 78.0984 35.6151 78.0915 35.3859 78.0915H35.3872Z" fill="white"/>
<path d="M61.4473 70.49C61.2614 70.5412 61.237 70.4264 61.1923 70.2743C60.9251 69.3561 60.666 68.4323 60.3541 67.5293C60.2022 67.0896 60.5345 67.1408 60.7216 67.0799C63.4723 66.1783 66.1808 65.1633 68.85 64.0363C70.7977 63.2149 72.7088 62.3147 74.5846 61.3356C74.9331 61.1531 75.081 61.1144 75.2383 61.5417C75.7184 62.8457 75.7401 62.8498 74.5506 63.6118C70.4722 66.224 66.2012 68.46 61.7579 70.3545C61.6548 70.3987 61.5503 70.443 61.4459 70.4872L61.4473 70.49Z" fill="white"/>
<path d="M84.3033 38.469C83.1328 39.8961 81.8863 41.1545 80.6575 42.4336C80.412 42.6894 80.3429 42.5304 80.1693 42.3658C78.8333 41.1005 78.7099 39.3443 78.3206 37.6946C78.2772 37.5121 78.2894 37.3752 78.52 37.3641C80.5056 37.2687 82.4682 37.3019 84.3019 38.469H84.3033Z" fill="white"/>
<path d="M86.0488 53.5752C86.6428 54.2832 86.3946 54.7465 85.7884 55.2747C82.8926 57.797 79.8585 60.1243 76.6658 62.2414C76.362 62.4433 76.2412 62.5097 76.0744 62.0782C75.5848 60.8088 75.559 60.8185 76.7065 60.1713C80.0389 58.2893 83.172 56.1155 86.0474 53.5752H86.0488Z" fill="white"/>
<path d="M51.1151 51.5991C51.1015 52.3555 51.2277 53.058 51.5491 53.69C51.7349 54.055 51.5179 54.0619 51.3118 54.1103C49.3519 54.5708 47.3879 55.0189 45.4308 55.489C45.15 55.5568 45.0497 55.5402 45.1093 55.2221C45.1609 54.9525 45.1731 54.6759 45.2192 54.4063C45.3657 53.5351 45.702 52.9377 46.7166 52.8146C48.218 52.6335 49.6394 52.0499 51.1151 51.5991Z" fill="white"/>
<path d="M34.8203 56.9283C36.6595 56.1843 38.5705 56.2424 40.4843 56.3323C38.6004 56.5784 36.7192 56.8619 34.8203 56.9283Z" fill="white"/>
<path d="M79.5995 43.461C79.5087 43.0365 79.4409 42.7157 79.373 42.3962C79.4287 42.7337 80.2967 42.8387 79.5995 43.461Z" fill="#9F9F9F"/>
<path d="M64.5621 89.3697C64.5648 85.5489 64.577 81.7281 64.5567 77.9088C64.554 77.4206 64.6733 77.3031 65.1453 77.3045C71.8496 77.321 78.5552 77.3155 85.2595 77.3197C85.4589 77.3197 85.6678 77.2713 85.8536 77.3971C85.8522 87.7407 85.8495 98.0843 85.8482 108.426C85.8482 109.04 85.5371 109.346 84.915 109.346C78.3626 109.346 71.8103 109.338 65.2579 109.361C64.6923 109.363 64.5635 109.226 64.5648 108.652C64.5825 102.224 64.5689 95.7984 64.5635 89.371L64.5621 89.3697Z" fill="#F8F8F9"/>
</g>
<defs>
<clipPath id="clip0_262_739">
<rect width="124" height="130" fill="white"/>
</clipPath>
</defs>
</svg>
