<svg width="1002" height="380" viewBox="0 0 1002 380" fill="none" xmlns="http://www.w3.org/2000/svg">
<path d="M189.745 365.355C180.057 365.355 172.083 361.933 166.046 355.186C160.132 348.568 157.134 338.927 157.134 326.524V288.43H47.3716C31.9726 288.43 20.1317 284.769 12.1768 277.548C4.09792 270.219 0 260.203 0 247.778C0 244.414 0.618834 240.983 1.83951 237.583C3.00021 234.334 4.75274 230.897 7.04414 227.371C9.19058 224.066 11.46 220.812 13.7884 217.699C16.0638 214.66 18.867 210.936 22.2042 206.527L142.535 45.1904C150.624 34.2735 157.138 26.5349 162.44 21.5399C168.295 16.0198 175.419 13.2212 183.615 13.2212C201.289 13.2212 222.358 20.8265 222.358 57.0582V228.974H227.894C240.101 228.974 250.12 230.708 257.677 234.13C266.334 238.048 270.725 246.391 270.725 258.929C270.725 269.156 267.213 276.795 260.287 281.636C253.748 286.206 244.49 288.428 231.983 288.428H222.36V326.522C222.36 339.233 219.393 348.958 213.544 355.426C207.582 362.015 199.577 365.355 189.745 365.355ZM183.615 21.6972C177.559 21.6972 172.529 23.6652 168.232 27.7153C163.366 32.2985 157.002 39.8827 149.314 50.2555L28.9584 211.626C25.6143 216.045 22.819 219.756 20.5516 222.784C18.3362 225.747 16.1747 228.847 14.1283 231.997C12.1948 234.972 10.7382 237.814 9.79641 240.447C8.90565 242.93 8.45478 245.395 8.45478 247.779C8.45478 257.848 11.529 265.531 17.8503 271.266C24.2026 277.032 34.135 279.956 47.3706 279.956H165.589V326.524C165.589 336.775 167.86 344.516 172.343 349.528C176.769 354.474 182.46 356.88 189.745 356.88C197.193 356.88 202.928 354.543 207.277 349.737C211.672 344.876 213.902 337.066 213.902 326.524V279.956H231.981C242.551 279.956 250.447 278.183 255.449 274.687C260.038 271.48 262.268 266.326 262.268 258.931C262.268 249.899 259.628 244.313 254.197 241.855C247.741 238.932 238.892 237.45 227.894 237.45H213.902V57.0602C213.902 32.9338 204.278 21.6972 183.615 21.6972ZM165.59 237.451H55.3315L165.59 88.1376V237.451ZM72.1091 228.977H157.134V113.833L72.1091 228.977Z" fill="#4594E9"/>
<path d="M921.023 365.355C911.334 365.355 903.36 361.933 897.325 355.186C891.409 348.57 888.411 338.927 888.411 326.524V288.43H778.649C763.251 288.43 751.408 284.769 743.454 277.548C735.374 270.219 731.277 260.203 731.277 247.778C731.277 244.414 731.896 240.983 733.116 237.583C734.278 234.334 736.029 230.897 738.32 227.371C740.468 224.067 742.736 220.812 745.065 217.699C747.339 214.659 750.144 210.936 753.482 206.527L873.81 45.1904C881.9 34.2735 888.414 26.5349 893.717 21.5399C899.572 16.0198 906.695 13.2212 914.891 13.2212C932.566 13.2212 953.634 20.8265 953.634 57.0582V228.974H959.171C971.375 228.974 981.397 230.708 988.954 234.13C997.61 238.048 1002 246.391 1002 258.929C1002 269.156 998.488 276.795 991.562 281.636C985.024 286.206 975.766 288.428 963.257 288.428H953.634V326.522C953.634 339.233 950.668 348.958 944.818 355.426C938.86 362.015 930.854 365.355 921.023 365.355ZM914.892 21.6972C908.837 21.6972 903.806 23.6652 899.51 27.7153C894.645 32.2985 888.279 39.8827 880.591 50.2555L760.237 211.626C756.891 216.045 754.097 219.756 751.829 222.784C749.614 225.748 747.451 228.848 745.407 231.997C743.473 234.972 742.016 237.815 741.075 240.447C740.184 242.93 739.732 245.395 739.732 247.779C739.732 257.848 742.805 265.531 749.128 271.266C755.48 277.032 765.412 279.956 778.649 279.956H896.867V326.524C896.867 336.775 899.138 344.516 903.621 349.528C908.046 354.474 913.739 356.88 921.024 356.88C928.472 356.88 934.206 354.543 938.555 349.737C942.95 344.876 945.179 337.066 945.179 326.524V279.956H963.259C973.829 279.956 981.726 278.183 986.726 274.687C991.315 271.48 993.546 266.326 993.546 258.931C993.546 249.899 990.906 244.313 985.475 241.855C979.018 238.932 970.169 237.45 959.172 237.45H945.179V57.0602C945.179 32.9338 935.555 21.6972 914.892 21.6972ZM896.867 237.451H786.61L896.867 88.1376V237.451ZM803.385 228.977H888.411V113.833L803.385 228.977Z" fill="#4594E9"/>
<path d="M338.458 379.844C325.378 378.909 314.801 374.687 307.025 367.199C301.975 362.335 298.322 356.195 296.172 348.924C294.476 343.187 293.71 336.756 293.897 329.799C294.212 318.039 297.111 308.918 297.234 308.535C297.485 307.756 298.122 307.164 298.915 306.969C299.71 306.775 300.548 307.007 301.129 307.584L367.368 373.161C367.961 373.748 368.2 374.605 367.997 375.415C367.795 376.225 367.183 376.844 366.385 377.08C365.858 377.236 353.276 380.777 338.458 379.844ZM300.708 313.802C299.864 317.434 298.77 323.334 298.6 330.052C298.234 344.64 302.165 356.001 310.285 363.819C317.246 370.521 326.833 374.344 338.781 375.183C347.942 375.826 356.323 374.523 361.048 373.538L300.708 313.802Z" fill="#DD9B1D"/>
<path d="M392.175 297.398C391.654 297.361 391.141 297.151 390.73 296.765C389.781 295.872 389.734 294.379 390.625 293.429C390.826 293.215 411.437 271.313 475.002 212.83C483.753 204.778 491.567 198.701 498.312 194.696C496.007 190.363 494.154 186.207 492.756 182.235C487.782 182.097 482.964 180.804 478.526 178.387C477.327 177.735 476.186 177.017 475.108 176.252C473.491 178.899 471.597 181.751 469.421 184.82C461.392 196.148 449.554 210.268 434.236 226.789C408.217 254.853 380.744 280.524 380.469 280.78C379.518 281.667 378.028 281.614 377.141 280.659C376.254 279.706 376.308 278.213 377.26 277.324C377.533 277.069 404.897 251.5 430.801 223.559C445.975 207.192 457.679 193.236 465.586 182.079C467.945 178.75 469.864 175.814 471.418 173.225C464.707 166.891 461.436 158.71 462.704 153.515C463.54 150.09 466.164 148.087 469.904 148.019C476.101 147.909 480.041 149.832 481.615 153.738C483.289 157.894 481.974 163.871 477.482 172.144C478.508 172.899 479.605 173.605 480.774 174.241C483.382 175.662 486.924 177.034 491.259 177.419C490.283 173.767 489.723 170.289 489.587 166.994C489.077 154.659 494.552 147.628 499.234 143.902C504.128 140.007 510.757 137.747 517.423 137.699C523.89 137.654 529.662 139.713 532.867 143.21C535.155 145.705 539.402 152.649 529.463 163.221C520.167 173.111 510.657 179.221 501.2 181.381C500.035 181.648 498.871 181.852 497.714 181.995C498.959 185.322 500.544 188.807 502.46 192.427C502.778 192.269 503.095 192.116 503.408 191.968C510.364 188.691 515.921 188.065 519.921 190.108C523.829 192.105 525.793 196.5 525.177 201.863C524.631 206.629 521.818 212.307 516.936 213.517C514.78 214.051 510.529 214.014 506.276 207.77C504.194 204.713 502.303 201.727 500.607 198.815C494.187 202.638 486.67 208.5 478.184 216.307C414.794 274.629 394.256 296.445 394.056 296.66C393.554 297.198 392.857 297.446 392.175 297.398ZM504.756 196.555C506.374 199.335 508.179 202.189 510.167 205.109C511.304 206.777 513.548 209.493 515.807 208.934C518.011 208.388 520.073 205.046 520.5 201.323C520.644 200.078 520.87 195.889 517.782 194.312C515.22 193.003 510.826 193.687 505.412 196.239C505.195 196.341 504.977 196.446 504.756 196.555ZM519.411 142.478C518.773 142.434 518.121 142.413 517.457 142.418C511.823 142.458 506.248 144.345 502.163 147.596C494.26 153.886 492.324 164.242 496.179 177.409C504.286 176.682 514.448 172.308 526.037 159.981C529.027 156.801 533.44 150.808 529.401 146.401C527.379 144.196 523.729 142.782 519.411 142.478ZM471.811 152.78C471.246 152.74 470.638 152.726 469.99 152.738C468 152.774 467.504 153.718 467.28 154.635C466.522 157.743 468.833 163.823 473.825 168.953C478.022 160.922 477.926 157.183 477.249 155.504C476.603 153.901 474.777 152.988 471.811 152.78Z" fill="#DD9B1D"/>
<path d="M395.88 351.983C391.596 351.683 387.547 349.854 384.478 346.836L326.589 289.901C319.467 282.897 319.359 271.391 326.347 264.252L326.446 264.151C330.166 260.351 335.337 258.387 340.635 258.76C344.919 259.061 348.969 260.888 352.038 263.908L409.927 320.842C417.048 327.846 417.157 339.352 410.169 346.49L410.068 346.594C406.35 350.39 401.178 352.355 395.88 351.983ZM340.305 263.47C336.384 263.194 332.558 264.648 329.808 267.457L329.709 267.558C324.537 272.839 324.617 281.352 329.886 286.534L387.775 343.468C390.045 345.702 393.04 347.053 396.208 347.276C400.129 347.551 403.956 346.098 406.705 343.289L406.806 343.186C411.976 337.905 411.895 329.394 406.627 324.213L348.738 267.278C346.469 265.044 343.474 263.692 340.305 263.47Z" fill="#DD9B1D"/>
<path d="M374.229 370.919C371.006 370.693 367.96 369.317 365.651 367.047L307.141 309.502C304.546 306.95 303.098 303.537 303.063 299.893C303.029 296.249 304.413 292.809 306.96 290.208C309.756 287.351 313.646 285.873 317.633 286.153C320.856 286.38 323.903 287.755 326.212 290.025L384.721 347.57C387.316 350.122 388.765 353.536 388.799 357.18C388.833 360.824 387.449 364.264 384.903 366.865C382.106 369.721 378.215 371.199 374.229 370.919ZM317.304 290.862C314.696 290.678 312.151 291.645 310.321 293.513C308.656 295.215 307.751 297.464 307.773 299.848C307.796 302.232 308.743 304.464 310.44 306.134L368.949 363.678C370.459 365.163 372.451 366.062 374.557 366.21C377.166 366.393 379.711 365.427 381.541 363.559C383.206 361.857 384.111 359.608 384.088 357.224C384.066 354.84 383.118 352.609 381.422 350.939L322.912 293.395C321.402 291.909 319.411 291.009 317.304 290.862Z" fill="#DD9B1D"/>
<path d="M658.227 195.156C657.907 195.361 657.607 195.609 657.335 195.898L639.028 215.38L614.792 196.365C614.179 195.884 613.457 195.563 612.689 195.43L578.825 189.572L581.891 152.61L599.756 120.165C600.947 118.001 600.272 115.283 598.206 113.932L549.383 81.9924L559.531 49.2237L602.848 36.1795C606.754 35.5161 611.022 35.0672 614.336 34.1324C601.071 23.7365 584.483 14.3176 568.459 8.70833C541.081 -0.87591 511.623 -2.58635 483.269 3.7624C454.147 10.2845 427.664 25.0592 406.682 46.4892C385.661 67.9603 371.395 94.8012 365.424 124.109C359.807 151.687 361.733 180.138 370.983 206.598L338.542 239.732C337.667 240.626 337.183 241.831 337.194 243.083C337.206 244.335 337.713 245.531 338.604 246.407L429.618 335.921C430.129 336.423 430.726 336.786 431.361 337.008C433.029 337.593 434.959 337.206 436.279 335.858L468.742 302.701C495.358 311.48 523.831 312.882 551.265 306.738C580.388 300.216 606.871 285.442 627.85 264.012C642.495 249.053 653.781 231.667 661.396 212.336C664.728 203.874 667.504 194.075 669.299 185.248C665.599 188.617 662.043 191.935 658.227 195.156ZM621.122 257.425C581.844 297.543 522.194 311.495 469.169 292.931L468.993 292.87C467.27 292.267 465.364 292.691 464.087 293.996L432.856 325.879L348.565 242.978L379.78 211.095C381.06 209.788 381.47 207.858 380.833 206.143C361.24 153.398 374.026 93.3292 413.406 53.1075C452.683 12.9889 512.326 -0.935028 565.352 17.6292C574.493 20.8297 583.192 24.8898 591.407 29.7716L554.423 40.909C552.922 41.3609 551.744 42.5302 551.279 44.0302L539.334 82.6017C538.711 84.6157 539.495 86.8011 541.258 87.9534L589.396 119.444L573.161 148.933C572.84 149.516 572.646 150.159 572.59 150.823L569.083 193.098C568.88 195.536 570.569 197.725 572.975 198.141L609.921 204.531L636.607 225.469C637.373 226.071 638.271 226.397 639.178 226.461C640.544 226.558 641.936 226.057 642.938 224.989L657.942 204.912C651.127 218.556 632.105 246.206 621.122 257.425Z" fill="#DD9B1D"/>
<path d="M651.868 97.9804C651.835 97.9784 651.802 97.9753 651.769 97.9713L594.884 91.5575C593.898 91.4462 593.086 90.7248 592.857 89.7558L585.904 60.3188C585.64 59.2035 586.214 58.0592 587.264 57.6063L629.53 39.4008C630.586 38.9458 631.814 39.3206 632.438 40.2885C641.251 53.959 653.749 93.2458 654.277 94.9112C654.519 95.6737 654.358 96.5064 653.852 97.1236C653.367 97.7168 652.626 98.0335 651.868 97.9804ZM597.057 87.0524L648.662 92.8711C645.515 83.2999 636.415 56.466 629.514 44.5451L590.94 61.1604L597.057 87.0524Z" fill="#DD9B1D"/>
<path d="M622.401 158.92C622.262 158.91 622.124 158.888 621.987 158.854L598.611 152.92C597.859 152.73 597.249 152.18 596.98 151.451C596.711 150.722 596.817 149.907 597.264 149.272L612.088 128.209C612.604 127.477 613.486 127.101 614.373 127.238C615.255 127.375 615.986 128.002 616.257 128.856L624.81 155.852C625.069 156.669 624.866 157.561 624.279 158.185C623.789 158.705 623.097 158.969 622.401 158.92ZM603.088 149.188L619.039 153.237L613.203 134.814L603.088 149.188Z" fill="#DD9B1D"/>
<path d="M677.693 165.122C660.536 163.918 651.698 160.059 650.677 153.326C648.567 139.409 658.106 113.91 658.513 112.831C658.775 112.138 659.346 111.608 660.057 111.4C660.767 111.193 661.534 111.332 662.125 111.775L683.176 127.548L695.542 117.086C696.19 116.539 697.08 116.38 697.876 116.675C698.671 116.969 699.247 117.668 699.385 118.506L706.581 162.279C706.688 162.932 706.518 163.599 706.109 164.119C705.701 164.64 705.094 164.965 704.436 165.015C703.885 165.059 690.786 166.041 677.693 165.122ZM661.864 117.473C659.441 124.543 653.803 142.521 655.333 152.615C655.619 154.501 658.402 159.035 678.022 160.413C687.419 161.072 697.043 160.709 701.51 160.469L695.412 123.374L684.784 132.365C683.947 133.074 682.733 133.11 681.854 132.453L661.864 117.473Z" fill="#DD9B1D"/>
<path d="M707.916 209.929C707.711 209.915 707.505 209.873 707.304 209.803L683.942 201.623C683.087 201.325 682.479 200.56 682.378 199.658C682.277 198.757 682.701 197.877 683.469 197.395L694.976 190.172C696.002 189.528 697.35 189.77 698.09 190.731L709.945 206.133C710.582 206.96 710.6 208.108 709.99 208.955C709.506 209.628 708.715 209.985 707.916 209.929ZM690.123 198.788L701.375 202.727L695.665 195.31L690.123 198.788Z" fill="#DD9B1D"/>
<path d="M715.744 84.3392C715.405 84.3152 715.069 84.218 714.761 84.0456L689.713 70.0255C689.048 69.6527 688.603 68.9814 688.52 68.2219C688.437 67.4633 688.725 66.7098 689.295 66.2018L700.158 56.5043C700.951 55.7969 702.115 55.7088 703.005 56.2869L728.022 72.5456C728.681 72.9754 729.084 73.7059 729.094 74.4945C729.105 75.283 728.722 76.0245 728.074 76.4714L717.241 83.9294C716.795 84.238 716.267 84.3763 715.744 84.3392ZM694.898 67.5225L715.782 79.2109L722.501 74.5836L701.95 61.2278L694.898 67.5225Z" fill="#DD9B1D"/>
<path d="M411.017 85.9897C410.49 85.9897 409.956 85.8404 409.483 85.5288C408.193 84.6781 407.835 82.9396 408.682 81.646C418.182 67.1699 429.56 54.9975 442.504 45.4693C452.874 37.835 464.259 31.874 476.346 27.7528C496.972 20.7197 512.351 21.4742 512.996 21.5102C514.539 21.5954 515.72 22.9171 515.635 24.4632C515.55 26.0083 514.234 27.1936 512.692 27.1085C512.543 27.1015 497.557 26.3961 477.906 33.1436C459.827 39.3521 433.953 53.3411 413.358 84.7261C412.818 85.5458 411.927 85.9897 411.017 85.9897Z" fill="#DD9B1D"/>
<path d="M388.076 157.764C386.701 157.764 385.504 156.749 385.309 155.346C382.447 134.698 393.382 104.784 393.848 103.521C394.385 102.069 395.994 101.328 397.444 101.865C398.892 102.404 399.631 104.016 399.095 105.468C398.986 105.764 388.184 135.331 390.85 154.574C391.062 156.108 389.994 157.524 388.465 157.737C388.334 157.755 388.204 157.764 388.076 157.764Z" fill="#DD9B1D"/>
</svg>
