<svg width="66" height="49" viewBox="0 0 66 49" fill="none" xmlns="http://www.w3.org/2000/svg">
<path d="M5.06641 36.202C5.94707 37.9167 7.09841 39.4374 8.52424 40.6245C9.9272 41.8348 11.5475 42.7387 13.244 43.4292C14.9481 44.1042 16.7285 44.593 18.5394 44.884C20.3388 45.1594 22.2221 45.3495 23.9568 45.206H24.0063H24.075C25.5999 45.2331 27.2774 44.9538 28.9091 44.6512C30.5522 44.337 32.1953 43.9685 33.8461 43.5922C37.1476 42.8706 40.4606 42.0986 43.8193 41.5284C47.1742 40.9503 50.5748 40.512 54.006 40.5352C55.7178 40.5624 57.441 40.7021 59.1184 41.09C60.7882 41.4741 62.4275 42.1491 63.7428 43.2469C62.3132 42.312 60.67 41.8348 59.0231 41.5982C57.3685 41.3616 55.6949 41.346 54.0251 41.443C52.3552 41.5284 50.6892 41.7378 49.0346 42.0055C47.3762 42.2654 45.7255 42.5797 44.0823 42.9366C40.7923 43.6504 37.5174 44.4611 34.2235 45.2758C32.5728 45.6676 30.9182 46.0556 29.2369 46.3892C27.548 46.7034 25.8668 47.0525 24.0025 46.9944H24.1207C23.0837 47.0719 22.1192 47.0293 21.1432 46.9517C20.1711 46.8702 19.2027 46.7383 18.2496 46.5405C16.3434 46.1487 14.4601 45.5668 12.7026 44.6939C10.9375 43.8482 9.29434 42.6922 7.94857 41.2529C6.59899 39.8176 5.60014 38.0641 5.07022 36.2098L5.06641 36.202Z" fill="white"/>
<path d="M37.5562 30.1813C36.6107 28.7498 35.4746 27.2718 34.5139 25.7201V25.7123C33.9001 24.7231 33.3664 23.7067 33.0004 22.6631C32.0625 25.3477 29.9886 27.8421 28.4408 30.1774C27.3428 31.8223 26.5117 33.3934 26.5117 34.9025C26.5117 38.5452 29.4129 41.5012 33.0004 41.5012C33.9192 41.5012 34.7998 41.3034 35.5928 40.9542C37.8841 39.9417 39.4853 37.6141 39.4853 34.9063C39.4853 33.3973 38.6542 31.83 37.5562 30.1813Z" fill="white"/>
<path d="M41.639 23.6059C40.5829 21.5343 39.6565 19.4821 39.4774 17.5347C38.7606 19.0787 37.8533 21.7166 38.2803 24.5602C37.2471 21.4179 38.2574 18.0817 38.8712 16.5183C37.838 17.2476 37.0412 18.1593 36.4389 19.1446C35.5201 20.6304 35.0207 22.283 34.75 23.7572V23.7649C35.44 25.1149 36.3779 26.4417 37.3005 27.7374C37.6512 28.2378 38.0058 28.7382 38.3375 29.227C39.626 31.1357 40.6516 32.9861 40.6516 34.9064C40.6516 35.1042 40.6439 35.2943 40.6287 35.4844C40.6173 35.6473 40.6058 35.8064 40.5829 35.9616C40.5753 36.0159 40.5639 36.0702 40.5601 36.1245C40.5372 36.2913 40.5029 36.4542 40.4648 36.6133C40.4343 36.7568 40.4 36.9004 40.358 37.0361C40.3466 37.0905 40.3275 37.1486 40.3123 37.203C40.2665 37.3465 40.217 37.49 40.1674 37.6336C40.156 37.6685 40.1445 37.7034 40.1331 37.7422C40.0759 37.8896 40.0111 38.0409 39.9463 38.1844C39.8777 38.3396 39.7938 38.4948 39.7099 38.6499C39.6642 38.7469 39.6032 38.84 39.5498 38.9293C39.363 39.2435 39.1495 39.5422 38.9207 39.8293C38.8636 39.9069 38.7988 39.9844 38.7339 40.0543H38.7416C40.0683 39.5694 41.1434 39.0534 42.024 38.4909C48.1925 34.6154 44.4258 29.0602 41.639 23.6097V23.6059Z" fill="white"/>
<path d="M63.1942 31.217C63.0227 31.2481 62.8473 31.2636 62.6681 31.283C62.3441 31.3179 62.0048 31.3373 61.6464 31.3412C60.8954 32.2877 59.4009 33.7153 56.9381 34.0839C58.4974 33.7929 59.8965 32.3886 60.7619 31.3295C59.5953 31.2752 58.2762 31.0619 56.8466 30.5886C54.521 29.8205 52.8436 29.6808 51.6351 29.9097C51.5931 33.5679 50.2969 37.1912 44.7461 40.0425C53.5908 40.2443 59.3666 36.9274 62.63 34.1382C62.771 34.0179 62.9045 33.8977 63.0341 33.7813C64.9937 32.0201 65.9315 30.5498 66.0001 30.4334C65.9125 30.4761 64.8869 30.9765 63.1904 31.2132L63.1942 31.217Z" fill="white"/>
<path d="M45.1844 38.452C45.295 38.3938 45.4017 38.3279 45.5085 38.2619C45.5504 38.2387 45.5923 38.2076 45.6305 38.1844C45.741 38.1184 45.8478 38.0525 45.9469 37.9826C46.2519 37.7848 46.534 37.5831 46.797 37.3813C46.919 37.2843 47.0372 37.1912 47.1478 37.0943C47.2126 37.0516 47.266 37.005 47.3232 36.9391C47.3308 36.9391 47.3346 36.9313 47.3422 36.9275C47.4375 36.8576 47.5252 36.7723 47.6129 36.6908C47.7387 36.5706 47.8569 36.4503 47.9713 36.33C47.9903 36.3106 48.0094 36.2951 48.0246 36.2757C48.2229 36.0701 48.4097 35.8645 48.5774 35.6511C48.6956 35.5076 48.8062 35.3641 48.9053 35.2167C49.012 35.0731 49.1112 34.9257 49.1989 34.7822C49.2446 34.7123 49.2942 34.6348 49.3323 34.5611C49.3399 34.5494 49.3437 34.5378 49.3513 34.5261C49.359 34.5145 49.3704 34.5029 49.3704 34.4912C49.4238 34.3942 49.4772 34.2934 49.5305 34.2003C49.5763 34.111 49.6182 34.0257 49.6601 33.9365C49.7059 33.8279 49.7555 33.7231 49.7936 33.6145C49.8012 33.6067 49.805 33.6029 49.805 33.5951C49.8393 33.5059 49.8736 33.4166 49.9041 33.3274C49.9346 33.2498 49.9613 33.1722 49.988 33.0947C50.0109 33.0365 50.03 32.9822 50.0452 32.9201C50.1138 32.6873 50.1748 32.4623 50.2282 32.2296C50.2358 32.2063 50.2396 32.1869 50.2396 32.1636C50.2625 32.0744 50.2816 31.9774 50.2968 31.8843C50.3159 31.7834 50.3273 31.6865 50.3388 31.5934C50.3388 31.5934 50.3413 31.5908 50.3464 31.5856C50.3654 31.4498 50.3883 31.3179 50.3998 31.186V31.155C50.4112 31.0541 50.4226 30.9533 50.4341 30.8524C50.4455 30.674 50.4569 30.4955 50.4646 30.3093C50.476 29.9795 50.476 29.6537 50.4722 29.3201V29.2114C50.354 25.6463 49.1722 21.8135 49.9804 18.07C48.9549 19.0708 47.3384 20.898 47.0715 22.6709C47.3575 20.0833 48.7833 18.2872 49.6906 17.3872C46.9991 18.3338 44.5211 19.9165 42.4204 22.5545C42.7559 23.2217 43.1105 23.8967 43.465 24.564C45.417 28.2688 47.4413 32.0977 46.1032 35.6162C45.4818 37.2494 44.197 38.6266 42.2031 39.7788L42.2222 39.9029C42.6835 39.7128 43.1257 39.5227 43.5413 39.3288C43.7014 39.2512 43.8501 39.1813 43.9988 39.1038C44.075 39.0688 44.1436 39.0339 44.2199 38.9913C44.3914 38.902 44.5554 38.8167 44.7193 38.7275C44.8604 38.6499 45.0014 38.5723 45.1348 38.4947C45.1539 38.4831 45.1692 38.4753 45.1882 38.4598L45.1844 38.452Z" fill="white"/>
<path d="M32.0207 21.9222L33.0081 19.1019L33.9879 21.9144C34.3462 20.6537 34.8342 19.5092 35.4518 18.5084C35.5357 18.3726 35.6348 18.2485 35.7263 18.1166C35.3108 17.5191 34.899 16.914 34.5178 16.2972V16.2894C33.904 15.3002 33.3703 14.2838 33.0043 13.2402C32.4095 14.9355 31.3611 16.5571 30.2822 18.1088C30.3737 18.2407 30.4728 18.3648 30.5567 18.5045C31.1743 19.5054 31.6623 20.6537 32.0207 21.9183V21.9222Z" fill="white"/>
<path d="M26.4509 38.9254C26.3975 38.8361 26.3403 38.7392 26.2907 38.646C26.2069 38.4909 26.1268 38.3357 26.0544 38.1805C25.9896 38.037 25.9248 37.8896 25.8676 37.7383C25.8561 37.7034 25.8447 37.6685 25.8333 37.6297C25.7799 37.4861 25.7341 37.3426 25.6884 37.1991C25.6693 37.1447 25.6541 37.0865 25.6426 37.0322C25.6007 36.8965 25.5664 36.7529 25.5359 36.6094C25.5016 36.4465 25.4673 36.2874 25.4406 36.1206C25.433 36.0663 25.4215 36.012 25.4177 35.9577C25.3948 35.8025 25.3834 35.6434 25.372 35.4805C25.3529 35.2904 25.3491 35.1003 25.3491 34.9025C25.3491 32.9822 26.3746 31.1318 27.6632 29.2231C27.9987 28.7343 28.3494 28.2339 28.7002 27.7335C29.619 26.4378 30.5568 25.1071 31.2507 23.761V23.7533C30.98 22.2791 30.4844 20.6265 29.5618 19.1407C28.9594 18.1554 28.1626 17.2437 27.1295 16.5144C27.7433 18.0778 28.7535 21.4101 27.7204 24.5563C28.1474 21.7127 27.24 19.0748 26.5233 17.5308C26.3403 19.4821 25.4139 21.5343 24.3617 23.602C21.571 29.0524 17.8082 34.6077 23.9766 38.4831C24.8573 39.0456 25.9362 39.5616 27.2591 40.0465H27.2667C27.2019 39.9767 27.1371 39.8991 27.0799 39.8215C26.8512 39.5344 26.6415 39.2357 26.4509 38.9215V38.9254Z" fill="white"/>
<path d="M14.3689 29.9098C13.1604 29.6848 11.4829 29.8205 9.15735 30.5887C7.7277 31.0581 6.40862 31.2753 5.24203 31.3296C6.10363 32.3926 7.50659 33.793 9.06585 34.0839C6.60305 33.7154 5.1086 32.2878 4.35756 31.3413C3.99919 31.3335 3.65989 31.318 3.33584 31.2831C3.15284 31.2637 2.97747 31.2481 2.80973 31.2171C1.11703 30.9805 0.0914972 30.4762 0 30.4374C0.0686229 30.5499 1.00647 32.024 2.96604 33.7852C3.09566 33.9055 3.22909 34.0219 3.37015 34.1421C6.63355 36.9353 12.4093 40.2521 21.254 40.0465C15.7032 37.1952 14.407 33.568 14.3651 29.9137L14.3689 29.9098Z" fill="white"/>
<path d="M19.9013 35.6085C18.5632 32.09 20.5876 28.2611 22.5395 24.5563C22.8903 23.8891 23.2486 23.214 23.5841 22.5468C21.4873 19.9088 19.0054 18.33 16.3139 17.3795C17.2212 18.2795 18.6471 20.0757 18.933 22.6632C18.6699 20.8903 17.0497 19.067 16.0241 18.0623C16.8324 21.8097 15.6505 25.6386 15.5324 29.2037V29.3124C15.5247 29.646 15.5247 29.9757 15.54 30.3016C15.5476 30.4878 15.559 30.6663 15.5705 30.8447C15.5819 30.9456 15.5934 31.0464 15.6048 31.1473V31.1783C15.6162 31.3102 15.6391 31.4421 15.6582 31.5779C15.6582 31.5779 15.6607 31.5805 15.6658 31.5857C15.6772 31.6826 15.6887 31.7758 15.7077 31.8766C15.7268 31.9736 15.742 32.0667 15.7649 32.1559C15.7649 32.1792 15.7725 32.1986 15.7763 32.2219C15.8297 32.4546 15.8869 32.6796 15.9593 32.9124C15.9784 32.9706 15.9936 33.0249 16.0165 33.087C16.0394 33.1646 16.0699 33.2421 16.1004 33.3197C16.1309 33.409 16.1652 33.4982 16.1995 33.5874C16.1995 33.5952 16.2071 33.599 16.211 33.6068C16.2529 33.7154 16.2986 33.8202 16.3444 33.9288C16.3863 34.018 16.4283 34.1034 16.474 34.1926C16.5274 34.2896 16.5808 34.3904 16.6341 34.4835C16.6341 34.4952 16.6456 34.5068 16.6532 34.5184C16.6608 34.5301 16.6646 34.5417 16.6723 34.5534C16.7142 34.6232 16.7599 34.7008 16.8057 34.7745C16.8934 34.918 16.9925 35.0654 17.0992 35.209C17.1984 35.3564 17.3089 35.4999 17.4271 35.6435C17.5949 35.8529 17.7817 36.0624 17.9799 36.268C17.999 36.2874 18.018 36.3029 18.0333 36.3223C18.1515 36.4426 18.2658 36.5629 18.3916 36.6831C18.4793 36.7685 18.567 36.8499 18.6623 36.9198C18.6699 36.9275 18.6738 36.9314 18.6814 36.9314C18.7386 36.9973 18.7919 37.0439 18.8568 37.0866C18.9673 37.1836 19.0855 37.2767 19.2075 37.3736C19.4705 37.5754 19.7527 37.781 20.0577 37.9749C20.1568 38.0448 20.2635 38.1107 20.3741 38.1767C20.416 38.1999 20.458 38.231 20.4961 38.2542C20.6028 38.3202 20.7058 38.3861 20.8201 38.4443C20.8392 38.4637 20.8544 38.4676 20.8735 38.4793C21.0069 38.5568 21.148 38.6344 21.2891 38.712C21.453 38.8012 21.6169 38.8866 21.7885 38.9758C21.8647 39.0185 21.9333 39.0534 22.0096 39.0883C22.1545 39.1659 22.307 39.2357 22.4671 39.3133C22.8826 39.5034 23.3211 39.6935 23.7862 39.8875L23.8052 39.7633C21.8113 38.6111 20.5266 37.234 19.9052 35.6008L19.9013 35.6085Z" fill="white"/>
<path d="M3.36218 34.1304V34.1227C3.32787 33.5369 3.30881 32.955 3.30499 32.3615C3.29737 31.9968 3.31262 31.6399 3.32787 31.2752C3.14487 31.2558 2.9695 31.2403 2.80176 31.2093C2.80176 31.6011 2.8132 31.989 2.84369 32.377C2.87419 32.8425 2.9085 33.308 2.96188 33.7658C3.01906 34.3438 3.09531 34.9102 3.19062 35.4843V35.4921C3.20968 35.6162 3.22493 35.7365 3.24781 35.8606C3.46511 37.0128 3.7396 38.1456 4.07509 39.255C3.81585 38.0912 3.62905 36.9119 3.49942 35.7287C3.44224 35.1973 3.4003 34.6619 3.36599 34.1227L3.36218 34.1304Z" fill="white"/>
<path d="M62.2449 27.2136C62.3441 27.7761 62.4622 28.3425 62.4851 28.9127C62.508 29.3045 62.5423 29.7002 62.5804 30.092C62.7901 30.0727 62.9845 30.0455 63.1713 30.0145C63.1599 29.6343 63.1485 29.2464 63.1485 28.8584C63.1599 28.2688 63.0646 27.6907 62.996 27.105L62.7863 25.3437C62.0009 20.6924 60.0681 16.2312 57.2774 12.4178C56.6331 11.4208 55.7944 10.5751 55.0395 9.67508C54.6697 9.20568 54.2084 8.83326 53.7852 8.42205C53.3506 8.01472 52.9313 7.60351 52.489 7.2117L51.0899 6.12548C50.621 5.76858 50.1711 5.38453 49.6602 5.09358C48.6538 4.47288 47.6854 3.78624 46.6065 3.3052C42.3977 1.16768 37.7008 0.0349141 33.0001 0C28.2918 0.0349141 23.5988 1.1638 19.3937 3.3052C18.3148 3.794 17.3465 4.47288 16.3438 5.09358C15.833 5.38453 15.3755 5.76858 14.9065 6.12548L13.5074 7.2117C13.0728 7.61127 12.6458 8.02248 12.2188 8.42205C11.7956 8.84102 11.3343 9.20956 10.9645 9.67508C10.2021 10.5828 9.37097 11.4247 8.71905 12.4178C5.93601 16.2312 3.99932 20.6924 3.21396 25.3437L2.99666 27.105C2.92804 27.6907 2.83654 28.2688 2.85179 28.8584C2.85179 29.2464 2.83273 29.6343 2.82129 30.0145C3.0081 30.0455 3.20253 30.0688 3.41221 30.092C3.44652 29.7002 3.48083 29.3045 3.50752 28.9127C3.52658 28.3386 3.64858 27.7722 3.7477 27.2058L4.05269 25.5183C5.01341 21.0338 7.05304 16.8402 9.80176 13.2673C10.4461 12.3324 11.2733 11.5566 12.0168 10.7147C12.3789 10.2841 12.825 9.93887 13.2367 9.55094L14.4872 8.42205L15.8368 7.41342C16.2866 7.08368 16.7212 6.72678 17.213 6.4591C18.1738 5.89272 19.1002 5.26039 20.1333 4.81814C24.1249 2.85132 28.5511 1.78838 33.0001 1.78838C37.4454 1.79614 41.8677 2.84356 45.8631 4.8259C46.8963 5.26039 47.8227 5.89272 48.7834 6.4591C49.2752 6.72678 49.7098 7.08368 50.1597 7.42118L51.5093 8.42205L52.7597 9.55094C53.1715 9.93887 53.6137 10.2841 53.9797 10.7147C54.7231 11.5566 55.5504 12.3363 56.1947 13.2673C58.9434 16.8402 60.9792 21.0338 61.9437 25.5183L62.2487 27.2136H62.2449Z" fill="white"/>
<path d="M62.6672 31.2791C62.6863 31.6438 62.6977 32.0007 62.6901 32.3653C62.6825 32.955 62.6672 33.5446 62.6329 34.1382C62.5986 34.6735 62.5567 35.2128 62.4919 35.7442C62.3699 36.9236 62.1831 38.099 61.9238 39.2628C62.2631 38.1533 62.5376 37.0205 62.7511 35.8684C62.774 35.7442 62.7931 35.624 62.8083 35.4998C62.9036 34.9257 62.9799 34.3554 63.037 33.7813C63.0904 33.3158 63.1247 32.8502 63.1552 32.3847C63.1857 31.9968 63.1972 31.605 63.1972 31.217C63.0256 31.2481 62.8502 31.2636 62.6711 31.283L62.6672 31.2791Z" fill="white"/>
<path d="M30.0802 42.3776C25.6349 39.934 16.7483 43.3667 12.5127 40.2637C17.6137 45.3643 30.0802 42.3776 30.0802 42.3776Z" fill="white"/>
<path d="M27.9141 48.9992C36.3318 45.582 55.611 41.4666 63.964 45.5626C54.6427 43.4409 29.2103 48.4834 27.9141 48.9992Z" fill="white"/>
<path d="M35.4701 32.0821C35.4625 32.3576 35.4625 32.6291 35.4396 32.9045C35.4168 33.1955 35.3329 33.4709 35.1461 33.7037C35.0622 33.8045 34.9707 33.8938 34.8754 33.983C34.5742 34.2701 34.2731 34.5533 33.9719 34.8442C33.4 35.399 32.832 35.9537 32.2639 36.5084C32.1457 36.6248 32.0314 36.7451 31.9132 36.8615C31.8865 36.8886 31.8751 36.9158 31.8751 36.9546C31.8751 37.9166 31.8751 38.8787 31.8751 39.8408V39.8951H30.5293C30.5789 36.489 30.5293 33.083 30.5293 29.673H31.8713C31.8789 30.5769 31.8865 31.4731 31.8941 32.3769C32.4851 31.9037 33.0683 31.4304 33.6555 30.9571C34.2426 30.4877 34.8297 30.0144 35.4435 29.5605C35.4473 29.6032 35.4511 29.6304 35.4511 29.6614C35.4549 29.9174 35.4625 30.1774 35.4625 30.4334C35.4625 30.7631 35.3253 31.0386 35.1003 31.2752C34.8983 31.4847 34.681 31.6748 34.4599 31.861C34.1396 32.1287 33.8194 32.3963 33.503 32.6679C33.1903 32.9356 32.8815 33.2032 32.5727 33.4748C32.3745 33.6494 32.1801 33.8239 31.9856 34.0024C31.9208 34.0645 31.8903 34.1498 31.8865 34.239C31.8751 34.3942 31.8751 34.5494 31.8713 34.7046C31.8713 34.8132 31.8713 34.9179 31.8713 35.0343C31.9018 35.0188 31.9284 35.0071 31.9475 34.9955C32.1076 34.8752 32.2716 34.7627 32.4279 34.6386C32.8587 34.2895 33.2857 33.9326 33.7126 33.5834C33.9948 33.3507 34.2845 33.1257 34.5628 32.889C34.6924 32.7804 34.8068 32.6524 34.9326 32.536C35.0927 32.3886 35.2567 32.2489 35.4168 32.1054C35.4282 32.0976 35.4396 32.0899 35.4511 32.0821C35.4549 32.0821 35.4625 32.0821 35.4663 32.086L35.4701 32.0821Z" fill="#081738"/>
</svg>
