<svg width="66" height="49" viewBox="0 0 66 49" fill="none" xmlns="http://www.w3.org/2000/svg">
<path d="M5.06641 36.2021C5.94707 37.9168 7.09841 39.4375 8.52424 40.6246C9.9272 41.835 11.5475 42.7388 13.244 43.4294C14.9481 44.1044 16.7285 44.5932 18.5394 44.8841C20.3388 45.1595 22.2221 45.3496 23.9568 45.2061H24.0063H24.075C25.5999 45.2333 27.2774 44.9539 28.9091 44.6514C30.5522 44.3371 32.1953 43.9686 33.8461 43.5923C37.1476 42.8707 40.4606 42.0987 43.8193 41.5285C47.1742 40.9505 50.5748 40.5121 54.006 40.5354C55.7178 40.5625 57.441 40.7022 59.1184 41.0901C60.7882 41.4742 62.4275 42.1492 63.7428 43.247C62.3132 42.3121 60.67 41.835 59.0231 41.5983C57.3685 41.3617 55.6949 41.3462 54.0251 41.4431C52.3552 41.5285 50.6892 41.738 49.0346 42.0056C47.3762 42.2656 45.7255 42.5798 44.0823 42.9367C40.7923 43.6505 37.5174 44.4613 34.2235 45.2759C32.5728 45.6677 30.9182 46.0557 29.2369 46.3893C27.548 46.7035 25.8668 47.0527 24.0025 46.9945H24.1207C23.0837 47.0721 22.1192 47.0294 21.1432 46.9518C20.1711 46.8703 19.2027 46.7384 18.2496 46.5406C16.3434 46.1488 14.4601 45.5669 12.7026 44.694C10.9375 43.8483 9.29434 42.6923 7.94857 41.253C6.59899 39.8177 5.60014 38.0642 5.07022 36.2099L5.06641 36.2021Z" fill="#0E1D3A"/>
<path d="M37.5562 30.1813C36.6107 28.7498 35.4746 27.2717 34.5139 25.72V25.7122C33.9001 24.723 33.3664 23.7066 33.0004 22.6631C32.0625 25.3476 29.9886 27.842 28.4408 30.1774C27.3428 31.8222 26.5117 33.3933 26.5117 34.9024C26.5117 38.5451 29.4129 41.5012 33.0004 41.5012C33.9192 41.5012 34.7998 41.3033 35.5928 40.9542C37.8841 39.9417 39.4853 37.6141 39.4853 34.9063C39.4853 33.3972 38.6542 31.83 37.5562 30.1813Z" fill="#0E1D3A"/>
<path d="M41.639 23.6051C40.5829 21.5336 39.6565 19.4814 39.4774 17.534C38.7606 19.0779 37.8533 21.7159 38.2803 24.5595C37.2471 21.4172 38.2574 18.081 38.8712 16.5176C37.838 17.2469 37.0412 18.1585 36.4389 19.1439C35.5201 20.6297 35.0207 22.2823 34.75 23.7564V23.7642C35.44 25.1142 36.3779 26.4409 37.3005 27.7366C37.6512 28.2371 38.0058 28.7375 38.3375 29.2263C39.626 31.1349 40.6516 32.9854 40.6516 34.9057C40.6516 35.1035 40.6439 35.2936 40.6287 35.4837C40.6173 35.6466 40.6058 35.8057 40.5829 35.9608C40.5753 36.0151 40.5639 36.0695 40.5601 36.1238C40.5372 36.2906 40.5029 36.4535 40.4648 36.6126C40.4343 36.7561 40.4 36.8996 40.358 37.0354C40.3466 37.0897 40.3275 37.1479 40.3123 37.2022C40.2665 37.3458 40.217 37.4893 40.1674 37.6328C40.156 37.6677 40.1445 37.7027 40.1331 37.7415C40.0759 37.8889 40.0111 38.0402 39.9463 38.1837C39.8777 38.3389 39.7938 38.494 39.7099 38.6492C39.6642 38.7462 39.6032 38.8393 39.5498 38.9285C39.363 39.2428 39.1495 39.5415 38.9207 39.8285C38.8636 39.9061 38.7988 39.9837 38.7339 40.0535H38.7416C40.0683 39.5686 41.1434 39.0527 42.024 38.4902C48.1925 34.6147 44.4258 29.0595 41.639 23.609V23.6051Z" fill="#0E1D3A"/>
<path d="M63.1942 31.2178C63.0227 31.2488 62.8473 31.2643 62.6681 31.2837C62.3441 31.3186 62.0048 31.338 61.6464 31.3419C60.8954 32.2885 59.4009 33.7161 56.9381 34.0846C58.4974 33.7937 59.8965 32.3893 60.7619 31.3303C59.5953 31.276 58.2762 31.0626 56.8466 30.5893C54.521 29.8212 52.8436 29.6815 51.6351 29.9104C51.5931 33.5686 50.2969 37.192 44.7461 40.0433C53.5908 40.245 59.3666 36.9282 62.63 34.1389C62.771 34.0187 62.9045 33.8984 63.0341 33.782C64.9937 32.0208 65.9315 30.5505 66.0001 30.4341C65.9125 30.4768 64.8869 30.9772 63.1904 31.2139L63.1942 31.2178Z" fill="#0E1D3A"/>
<path d="M45.1844 38.4515C45.295 38.3934 45.4017 38.3274 45.5085 38.2615C45.5504 38.2382 45.5923 38.2071 45.6305 38.1839C45.741 38.1179 45.8478 38.052 45.9469 37.9821C46.2519 37.7843 46.534 37.5826 46.797 37.3808C46.919 37.2839 47.0372 37.1908 47.1478 37.0938C47.2126 37.0511 47.266 37.0045 47.3232 36.9386C47.3308 36.9386 47.3346 36.9308 47.3422 36.927C47.4375 36.8571 47.5252 36.7718 47.6129 36.6903C47.7387 36.5701 47.8569 36.4498 47.9713 36.3295C47.9903 36.3101 48.0094 36.2946 48.0246 36.2752C48.2229 36.0696 48.4097 35.864 48.5774 35.6507C48.6956 35.5071 48.8062 35.3636 48.9053 35.2162C49.012 35.0726 49.1112 34.9252 49.1989 34.7817C49.2446 34.7119 49.2942 34.6343 49.3323 34.5606C49.3399 34.5489 49.3437 34.5373 49.3513 34.5257C49.359 34.514 49.3704 34.5024 49.3704 34.4907C49.4238 34.3938 49.4772 34.2929 49.5305 34.1998C49.5763 34.1106 49.6182 34.0252 49.6601 33.936C49.7059 33.8274 49.7555 33.7226 49.7936 33.614C49.8012 33.6062 49.805 33.6024 49.805 33.5946C49.8393 33.5054 49.8736 33.4162 49.9041 33.3269C49.9346 33.2493 49.9613 33.1718 49.988 33.0942C50.0109 33.036 50.03 32.9817 50.0452 32.9196C50.1138 32.6868 50.1748 32.4618 50.2282 32.2291C50.2358 32.2058 50.2396 32.1864 50.2396 32.1631C50.2625 32.0739 50.2816 31.9769 50.2968 31.8838C50.3159 31.783 50.3273 31.686 50.3388 31.5929C50.3388 31.5929 50.3413 31.5903 50.3464 31.5851C50.3654 31.4493 50.3883 31.3174 50.3998 31.1855V31.1545C50.4112 31.0536 50.4226 30.9528 50.4341 30.8519C50.4455 30.6735 50.4569 30.495 50.4646 30.3088C50.476 29.9791 50.476 29.6532 50.4722 29.3196V29.211C50.354 25.6458 49.1722 21.813 49.9804 18.0695C48.9549 19.0704 47.3384 20.8975 47.0715 22.6704C47.3575 20.0829 48.7833 18.2867 49.6906 17.3867C46.9991 18.3333 44.5211 19.916 42.4204 22.554C42.7559 23.2212 43.1105 23.8963 43.465 24.5635C45.417 28.2683 47.4413 32.0972 46.1032 35.6157C45.4818 37.2489 44.197 38.6261 42.2031 39.7783L42.2222 39.9024C42.6835 39.7123 43.1257 39.5222 43.5413 39.3283C43.7014 39.2507 43.8501 39.1809 43.9988 39.1033C44.075 39.0684 44.1436 39.0334 44.2199 38.9908C44.3914 38.9015 44.5554 38.8162 44.7193 38.727C44.8604 38.6494 45.0014 38.5718 45.1348 38.4942C45.1539 38.4826 45.1692 38.4748 45.1882 38.4593L45.1844 38.4515Z" fill="#0E1D3A"/>
<path d="M32.0207 21.9222L33.0081 19.1019L33.9879 21.9144C34.3462 20.6537 34.8342 19.5092 35.4518 18.5084C35.5357 18.3726 35.6348 18.2485 35.7263 18.1166C35.3108 17.5191 34.899 16.914 34.5178 16.2972V16.2894C33.904 15.3002 33.3703 14.2838 33.0043 13.2402C32.4095 14.9355 31.3611 16.5571 30.2822 18.1088C30.3737 18.2407 30.4728 18.3648 30.5567 18.5045C31.1743 19.5054 31.6623 20.6537 32.0207 21.9183V21.9222Z" fill="#0E1D3A"/>
<path d="M26.4509 38.9256C26.3975 38.8364 26.3403 38.7394 26.2907 38.6463C26.2069 38.4911 26.1268 38.3359 26.0544 38.1808C25.9896 38.0372 25.9248 37.8898 25.8676 37.7385C25.8561 37.7036 25.8447 37.6687 25.8333 37.6299C25.7799 37.4864 25.7341 37.3428 25.6884 37.1993C25.6693 37.145 25.6541 37.0868 25.6426 37.0325C25.6007 36.8967 25.5664 36.7532 25.5359 36.6096C25.5016 36.4467 25.4673 36.2877 25.4406 36.1208C25.433 36.0665 25.4215 36.0122 25.4177 35.9579C25.3948 35.8027 25.3834 35.6437 25.372 35.4807C25.3529 35.2907 25.3491 35.1006 25.3491 34.9027C25.3491 32.9825 26.3746 31.132 27.6632 29.2234C27.9987 28.7346 28.3494 28.2341 28.7002 27.7337C29.619 26.438 30.5568 25.1074 31.2507 23.7613V23.7535C30.98 22.2793 30.4844 20.6268 29.5618 19.141C28.9594 18.1556 28.1626 17.244 27.1295 16.5146C27.7433 18.078 28.7535 21.4104 27.7204 24.5565C28.1474 21.713 27.24 19.075 26.5233 17.531C26.3403 19.4823 25.4139 21.5345 24.3617 23.6022C21.571 29.0527 17.8082 34.6079 23.9766 38.4834C24.8573 39.0459 25.9362 39.5618 27.2591 40.0467H27.2667C27.2019 39.9769 27.1371 39.8993 27.0799 39.8217C26.8512 39.5347 26.6415 39.236 26.4509 38.9217V38.9256Z" fill="#0E1D3A"/>
<path d="M14.3689 29.9097C13.1604 29.6847 11.4829 29.8205 9.15735 30.5886C7.7277 31.058 6.40862 31.2752 5.24203 31.3296C6.10363 32.3925 7.50659 33.7929 9.06585 34.0839C6.60305 33.7153 5.1086 32.2878 4.35756 31.3412C3.99919 31.3334 3.65989 31.3179 3.33584 31.283C3.15284 31.2636 2.97747 31.2481 2.80973 31.2171C1.11703 30.9804 0.0914972 30.4761 0 30.4373C0.0686229 30.5498 1.00647 32.024 2.96604 33.7852C3.09566 33.9054 3.22909 34.0218 3.37015 34.1421C6.63355 36.9352 12.4093 40.252 21.254 40.0464C15.7032 37.1951 14.407 33.5679 14.3651 29.9136L14.3689 29.9097Z" fill="#0E1D3A"/>
<path d="M19.9013 35.6079C18.5632 32.0894 20.5876 28.2605 22.5395 24.5557C22.8903 23.8884 23.2486 23.2134 23.5841 22.5462C21.4873 19.9082 19.0054 18.3293 16.3139 17.3789C17.2212 18.2789 18.6471 20.075 18.933 22.6626C18.6699 20.8897 17.0497 19.0664 16.0241 18.0617C16.8324 21.8091 15.6505 25.638 15.5324 29.2031V29.3118C15.5247 29.6454 15.5247 29.9751 15.54 30.301C15.5476 30.4872 15.559 30.6657 15.5705 30.8441C15.5819 30.945 15.5934 31.0458 15.6048 31.1467V31.1777C15.6162 31.3096 15.6391 31.4415 15.6582 31.5773C15.6582 31.5773 15.6607 31.5799 15.6658 31.5851C15.6772 31.682 15.6887 31.7751 15.7077 31.876C15.7268 31.973 15.742 32.0661 15.7649 32.1553C15.7649 32.1786 15.7725 32.198 15.7763 32.2213C15.8297 32.454 15.8869 32.679 15.9593 32.9118C15.9784 32.97 15.9936 33.0243 16.0165 33.0864C16.0394 33.1639 16.0699 33.2415 16.1004 33.3191C16.1309 33.4083 16.1652 33.4976 16.1995 33.5868C16.1995 33.5946 16.2071 33.5984 16.211 33.6062C16.2529 33.7148 16.2986 33.8196 16.3444 33.9282C16.3863 34.0174 16.4283 34.1027 16.474 34.192C16.5274 34.289 16.5808 34.3898 16.6341 34.4829C16.6341 34.4946 16.6456 34.5062 16.6532 34.5178C16.6608 34.5295 16.6646 34.5411 16.6723 34.5527C16.7142 34.6226 16.7599 34.7002 16.8057 34.7739C16.8934 34.9174 16.9925 35.0648 17.0992 35.2084C17.1984 35.3558 17.3089 35.4993 17.4271 35.6428C17.5949 35.8523 17.7817 36.0618 17.9799 36.2674C17.999 36.2868 18.018 36.3023 18.0333 36.3217C18.1515 36.442 18.2658 36.5622 18.3916 36.6825C18.4793 36.7679 18.567 36.8493 18.6623 36.9191C18.6699 36.9269 18.6738 36.9308 18.6814 36.9308C18.7386 36.9967 18.7919 37.0433 18.8568 37.086C18.9673 37.1829 19.0855 37.276 19.2075 37.373C19.4705 37.5748 19.7527 37.7804 20.0577 37.9743C20.1568 38.0442 20.2635 38.1101 20.3741 38.1761C20.416 38.1993 20.458 38.2304 20.4961 38.2536C20.6028 38.3196 20.7058 38.3855 20.8201 38.4437C20.8392 38.4631 20.8544 38.467 20.8735 38.4786C21.0069 38.5562 21.148 38.6338 21.2891 38.7114C21.453 38.8006 21.6169 38.886 21.7885 38.9752C21.8647 39.0179 21.9333 39.0528 22.0096 39.0877C22.1545 39.1653 22.307 39.2351 22.4671 39.3127C22.8826 39.5028 23.3211 39.6929 23.7862 39.8868L23.8052 39.7627C21.8113 38.6105 20.5266 37.2334 19.9052 35.6002L19.9013 35.6079Z" fill="#0E1D3A"/>
<path d="M3.36218 34.1301V34.1224C3.32787 33.5366 3.30881 32.9547 3.30499 32.3611C3.29737 31.9965 3.31262 31.6396 3.32787 31.2749C3.14487 31.2555 2.9695 31.24 2.80176 31.209C2.80176 31.6008 2.8132 31.9887 2.84369 32.3767C2.87419 32.8422 2.9085 33.3077 2.96188 33.7655C3.01906 34.3435 3.09531 34.9099 3.19062 35.484V35.4918C3.20968 35.6159 3.22493 35.7362 3.24781 35.8603C3.46511 37.0125 3.7396 38.1452 4.07509 39.2547C3.81585 38.0909 3.62905 36.9116 3.49942 35.7284C3.44224 35.1969 3.4003 34.6616 3.36599 34.1224L3.36218 34.1301Z" fill="#0E1D3A"/>
<path d="M62.2449 27.2136C62.3441 27.7761 62.4622 28.3425 62.4851 28.9127C62.508 29.3045 62.5423 29.7002 62.5804 30.092C62.7901 30.0727 62.9845 30.0455 63.1713 30.0145C63.1599 29.6343 63.1485 29.2464 63.1485 28.8584C63.1599 28.2688 63.0646 27.6907 62.996 27.105L62.7863 25.3437C62.0009 20.6924 60.0681 16.2312 57.2774 12.4178C56.6331 11.4208 55.7944 10.5751 55.0395 9.67508C54.6697 9.20568 54.2084 8.83326 53.7852 8.42205C53.3506 8.01472 52.9313 7.60351 52.489 7.2117L51.0899 6.12548C50.621 5.76858 50.1711 5.38453 49.6602 5.09358C48.6538 4.47288 47.6854 3.78624 46.6065 3.3052C42.3977 1.16768 37.7008 0.0349141 33.0001 0C28.2918 0.0349141 23.5988 1.1638 19.3937 3.3052C18.3148 3.794 17.3465 4.47288 16.3438 5.09358C15.833 5.38453 15.3755 5.76858 14.9065 6.12548L13.5074 7.2117C13.0728 7.61127 12.6458 8.02248 12.2188 8.42205C11.7956 8.84102 11.3343 9.20956 10.9645 9.67508C10.2021 10.5828 9.37097 11.4247 8.71905 12.4178C5.93601 16.2312 3.99932 20.6924 3.21396 25.3437L2.99666 27.105C2.92804 27.6907 2.83654 28.2688 2.85179 28.8584C2.85179 29.2464 2.83273 29.6343 2.82129 30.0145C3.0081 30.0455 3.20253 30.0688 3.41221 30.092C3.44652 29.7002 3.48083 29.3045 3.50752 28.9127C3.52658 28.3386 3.64858 27.7722 3.7477 27.2058L4.05269 25.5183C5.01341 21.0338 7.05304 16.8402 9.80176 13.2673C10.4461 12.3324 11.2733 11.5566 12.0168 10.7147C12.3789 10.2841 12.825 9.93887 13.2367 9.55094L14.4872 8.42205L15.8368 7.41342C16.2866 7.08368 16.7212 6.72678 17.213 6.4591C18.1738 5.89272 19.1002 5.26039 20.1333 4.81814C24.1249 2.85132 28.5511 1.78838 33.0001 1.78838C37.4454 1.79614 41.8677 2.84356 45.8631 4.8259C46.8963 5.26039 47.8227 5.89272 48.7834 6.4591C49.2752 6.72678 49.7098 7.08368 50.1597 7.42118L51.5093 8.42205L52.7597 9.55094C53.1715 9.93887 53.6137 10.2841 53.9797 10.7147C54.7231 11.5566 55.5504 12.3363 56.1947 13.2673C58.9434 16.8402 60.9792 21.0338 61.9437 25.5183L62.2487 27.2136H62.2449Z" fill="#0E1D3A"/>
<path d="M62.6672 31.2789C62.6863 31.6435 62.6977 32.0004 62.6901 32.3651C62.6825 32.9547 62.6672 33.5444 62.6329 34.1379C62.5986 34.6733 62.5567 35.2125 62.4919 35.744C62.3699 36.9233 62.1831 38.0987 61.9238 39.2626C62.2631 38.1531 62.5376 37.0203 62.7511 35.8681C62.774 35.744 62.7931 35.6237 62.8083 35.4996C62.9036 34.9254 62.9799 34.3552 63.037 33.781C63.0904 33.3155 63.1247 32.85 63.1552 32.3845C63.1857 31.9965 63.1972 31.6047 63.1972 31.2168C63.0256 31.2478 62.8502 31.2633 62.6711 31.2827L62.6672 31.2789Z" fill="#0E1D3A"/>
<path d="M30.0802 42.3776C25.6349 39.934 16.7483 43.3667 12.5127 40.2637C17.6137 45.3643 30.0802 42.3776 30.0802 42.3776Z" fill="#0E1D3A"/>
<path d="M27.9141 48.9992C36.3318 45.5819 55.611 41.4665 63.964 45.5625C54.6427 43.4408 29.2103 48.4833 27.9141 48.9992Z" fill="#0E1D3A"/>
<path d="M35.4701 32.0821C35.4625 32.3576 35.4625 32.6291 35.4396 32.9045C35.4168 33.1955 35.3329 33.4709 35.1461 33.7037C35.0622 33.8045 34.9707 33.8938 34.8754 33.983C34.5742 34.2701 34.2731 34.5533 33.9719 34.8442C33.4 35.399 32.832 35.9537 32.2639 36.5084C32.1457 36.6248 32.0314 36.7451 31.9132 36.8615C31.8865 36.8886 31.8751 36.9158 31.8751 36.9546C31.8751 37.9166 31.8751 38.8787 31.8751 39.8408V39.8951H30.5293C30.5789 36.489 30.5293 33.083 30.5293 29.673H31.8713C31.8789 30.5769 31.8865 31.4731 31.8941 32.3769C32.4851 31.9037 33.0683 31.4304 33.6555 30.9571C34.2426 30.4877 34.8297 30.0144 35.4435 29.5605C35.4473 29.6032 35.4511 29.6304 35.4511 29.6614C35.4549 29.9174 35.4625 30.1774 35.4625 30.4334C35.4625 30.7631 35.3253 31.0386 35.1003 31.2752C34.8983 31.4847 34.681 31.6748 34.4599 31.861C34.1396 32.1287 33.8194 32.3963 33.503 32.6679C33.1903 32.9356 32.8815 33.2032 32.5727 33.4748C32.3745 33.6494 32.1801 33.8239 31.9856 34.0024C31.9208 34.0645 31.8903 34.1498 31.8865 34.239C31.8751 34.3942 31.8751 34.5494 31.8713 34.7046C31.8713 34.8132 31.8713 34.9179 31.8713 35.0343C31.9018 35.0188 31.9284 35.0071 31.9475 34.9955C32.1076 34.8752 32.2716 34.7627 32.4279 34.6386C32.8587 34.2895 33.2857 33.9326 33.7126 33.5834C33.9948 33.3507 34.2845 33.1257 34.5628 32.889C34.6924 32.7804 34.8068 32.6524 34.9326 32.536C35.0927 32.3886 35.2567 32.2489 35.4168 32.1054C35.4282 32.0976 35.4396 32.0899 35.4511 32.0821C35.4549 32.0821 35.4625 32.0821 35.4663 32.086L35.4701 32.0821Z" fill="#4594E9"/>
</svg>
